<?xml version="1.0" encoding="UTF-8"?>
<svg version="1.1" xmlns="http://www.w3.org/2000/svg" width="1297" height="1290">
<path d="M0 0 C7.27309339 4.81538796 12.08455171 9.9417013 14.98828125 18.31640625 C15.76256445 22.8960072 16.11164126 27.28890271 16.10472012 31.92979527 C16.10522849 33.23445637 16.10573687 34.53911748 16.10626066 35.88331378 C16.10172308 37.32679625 16.09709677 38.77027844 16.09239197 40.21376038 C16.09105161 41.76748257 16.09015549 43.32120519 16.08966029 44.87492788 C16.08698551 49.18773168 16.07796779 53.50050315 16.0679955 57.81329541 C16.05815091 62.5559284 16.05418038 67.29856696 16.04946041 72.04120731 C16.04022279 80.51840073 16.02719336 88.9955822 16.01197433 97.47276688 C15.98849478 110.61080768 15.97212083 123.74885198 15.95686962 136.88690457 C15.91673685 171.20486317 15.86343517 205.52279882 15.80835249 239.84073607 C15.80467703 242.13152869 15.80100796 244.42232131 15.79734072 246.71311393 C15.75022881 276.13603126 15.7024981 305.55894758 15.65305517 334.98186108 C15.64067039 342.35208378 15.62831355 349.72230653 15.6159668 357.0925293 C15.61392067 358.31324728 15.61392067 358.31324728 15.61183321 359.55862622 C15.5673081 386.13705007 15.5263533 412.71547792 15.48729712 439.29391032 C15.44683502 466.81837392 15.40321182 494.34283063 15.35546014 521.8672826 C15.34872447 525.75007924 15.34202271 529.63287595 15.3353405 533.51567268 C15.33402477 534.27939288 15.33270904 535.04311307 15.33135345 535.8299763 C15.31035776 548.06818657 15.29263784 560.30639944 15.27615594 572.54461654 C15.25957139 584.80289937 15.23940859 597.06117223 15.21561284 609.31944322 C15.20284455 615.94654472 15.19174544 622.57364124 15.18486214 629.20075226 C15.17852303 635.26935633 15.16765566 641.33793514 15.15324795 647.40652526 C15.14883757 649.59532141 15.14605835 651.78412162 15.14511926 653.97292202 C15.13924643 665.46545591 14.96983536 676.86076302 13.98828125 688.31640625 C28.73261422 680.0380126 43.39159718 671.62652275 57.98095703 663.078125 C62.93897889 660.17366927 67.90070635 657.27557417 72.86328125 654.37890625 C73.85021973 653.80261475 74.8371582 653.22632324 75.85400391 652.63256836 C83.15385113 648.37461988 90.47503345 644.15459173 97.80078125 639.94140625 C106.69724933 634.82354558 115.54484409 629.62998958 124.36328125 624.37890625 C135.01627743 618.03568695 145.74371133 611.83762186 156.52685547 605.71899414 C162.43459256 602.36412824 168.29113046 598.95862844 174.06030273 595.36962891 C175.98828125 594.31640625 175.98828125 594.31640625 177.98828125 594.31640625 C178.0869751 593.73995865 178.18566895 593.16351105 178.28735352 592.56959534 C179.60182026 585.43206032 181.65802259 578.66770768 183.92578125 571.78125 C184.52715274 569.93029017 185.12851993 568.07932893 185.72972012 566.22831345 C186.36979317 564.26096511 187.01253034 562.29450552 187.65603638 560.32827759 C189.71097488 554.04810875 191.74810676 547.76215373 193.78633308 541.47654533 C194.25319836 540.03702355 194.72026483 538.597567 195.18752861 537.15817451 C199.8893564 522.67365148 204.4847296 508.15682387 209.05078125 493.62890625 C215.12016888 474.33302086 221.27068224 455.06503803 227.48828125 435.81640625 C233.43888723 417.39223901 239.34063496 398.95384565 245.16247559 380.48855591 C246.28835325 376.91831635 247.41596718 373.34862916 248.54394531 369.77905273 C251.73036536 359.68919191 254.90780004 349.59699935 258.03361511 339.48817444 C259.29820994 335.4036925 260.57236115 331.32222729 261.84799194 327.24118042 C262.43145912 325.36533735 263.01026634 323.48803705 263.58389282 321.60916138 C271.45886426 295.82069949 271.45886426 295.82069949 282.98828125 289.31640625 C291.09058832 285.27494447 300.2823135 284.65339751 309.00390625 287.1953125 C317.6163751 291.19773284 323.5630084 297.4897416 326.98828125 306.31640625 C327.73828125 308.75390625 327.73828125 308.75390625 327.98828125 311.31640625 C328.17390625 313.17265625 328.17390625 313.17265625 328.36328125 315.06640625 C328.2863461 319.40493644 327.29559073 323.14831214 326.05078125 327.296875 C325.83336273 328.02188705 325.61594421 328.74689911 325.39193726 329.49388123 C321.82281706 341.29156059 318.03822808 353.0238511 314.28819656 364.76495743 C313.13208889 368.38608204 311.97820421 372.00791509 310.82397461 375.62963867 C308.12725252 384.08963401 305.42694573 392.54848294 302.72574615 401.00704956 C301.99798774 403.28601059 301.27031156 405.56499785 300.54266357 407.84399414 C297.92684248 416.03667052 295.31042331 424.22915566 292.69338703 432.42144394 C291.26636109 436.88859099 289.83959007 441.35581934 288.41303349 445.8231163 C287.21952454 449.56051357 286.02581428 453.29784652 284.83203125 457.03515625 C284.47708745 458.1464024 284.47708745 458.1464024 284.11497307 459.28009796 C281.09350398 468.73873683 278.06636406 478.19553866 275.03312778 487.65041065 C272.94971055 494.14481812 270.86904211 500.640102 268.79026699 507.13599682 C267.31362775 511.74954739 265.83326137 516.36187962 264.35009956 520.97333717 C263.44037684 523.80496631 262.534259 526.63773898 261.62918091 529.47085571 C261.20857069 530.78491757 260.78645038 532.09849715 260.36273193 533.41156006 C259.78543543 535.20123144 259.21396752 536.99277988 258.64282227 538.78442383 C258.32136734 539.78637283 257.99991241 540.78832184 257.66871643 541.82063293 C256.85676397 544.3676551 256.85676397 544.3676551 256.98828125 547.31640625 C273.68642228 537.70318728 290.35361898 528.0391742 306.98828125 518.31640625 C320.39446006 510.48064959 333.81748808 502.67602914 347.27246094 494.92431641 C360.63542868 487.22135754 373.95022987 479.43601901 387.26171875 471.64453125 C392.27038639 468.71343771 397.28660825 465.79558504 402.30566406 462.88232422 C404.77907375 461.43852646 407.24038278 459.97623992 409.69921875 458.5078125 C419.90515888 452.47575959 428.97678472 448.49127233 440.98828125 451.31640625 C449.58348324 454.22936984 455.33087679 459.54090898 460.1484375 467.1484375 C463.44383479 474.18372752 463.16942326 483.66524251 461.296875 491.0390625 C460.36795425 493.30500727 459.31936708 495.26309088 457.98828125 497.31640625 C457.42173828 498.21552734 457.42173828 498.21552734 456.84375 499.1328125 C452.30221218 505.26594665 445.47914098 508.59413351 438.98828125 512.31640625 C437.08299917 513.42129898 435.17808141 514.52682006 433.2734375 515.6328125 C427.67539603 518.87653343 422.06725574 522.10248357 416.45654297 525.32421875 C410.92207231 528.50324737 405.39222067 531.69026966 399.86328125 534.87890625 C398.78812256 535.49894531 397.71296387 536.11898437 396.60522461 536.7578125 C385.37678366 543.23832846 374.18097452 549.77440632 362.98828125 556.31640625 C359.03042651 558.62972663 355.07217462 560.94236374 351.11328125 563.25390625 C349.63251099 564.11858521 349.63251099 564.11858521 348.12182617 565.00073242 C340.82216776 569.2584228 333.50127519 573.47836677 326.17578125 577.69140625 C317.27931064 582.80926837 308.43181411 588.00298133 299.61328125 593.25390625 C289.227899 599.43550234 278.77067088 605.47493843 268.26708984 611.45239258 C257.77162961 617.42665416 247.33680598 623.50133509 236.91503906 629.60302734 C222.53871811 638.01919522 208.1385807 646.39246775 193.70410156 654.70849609 C182.44030875 661.20140503 171.21275361 667.75583181 159.98828125 674.31640625 C146.58210244 682.15216291 133.15907442 689.95678336 119.70410156 697.70849609 C108.44030875 704.20140503 97.21275361 710.75583181 85.98828125 717.31640625 C73.67295124 724.51457439 61.34825291 731.69509808 48.98828125 738.81640625 C40.3354447 743.80435935 31.68586643 748.79777054 23.05078125 753.81640625 C22.09880859 754.36748047 21.14683594 754.91855469 20.16601562 755.48632812 C15.50331514 758.20102671 10.90805625 760.98565685 6.37109375 763.90625 C1.62011552 766.9539838 -3.22574399 769.71454477 -8.19921875 772.37890625 C-18.91849345 778.20135636 -29.43891148 784.34434857 -39.95605469 790.52246094 C-44.92799046 793.44142738 -49.90699648 796.34824896 -54.88671875 799.25390625 C-55.87124023 799.82858643 -56.85576172 800.4032666 -57.87011719 800.99536133 C-65.23756659 805.29184452 -72.6218671 809.55859339 -80.01171875 813.81640625 C-88.70443171 818.82824451 -97.39629065 823.84150112 -106.07421875 828.87890625 C-107.04294922 829.43835938 -108.01167969 829.9978125 -109.00976562 830.57421875 C-114.82228222 833.95500976 -120.46564054 837.51389401 -126.01171875 841.31640625 C-110.46938516 850.40572569 -94.89563022 859.43822202 -79.29394531 868.42529297 C-73.86511933 871.55320773 -68.43852594 874.68499073 -63.01171875 877.81640625 C-60.84506292 879.06642504 -58.67839625 880.31642503 -56.51171875 881.56640625 C-17.51171875 904.06640625 -17.51171875 904.06640625 -14.25732422 905.9440918 C-12.10547961 907.185441 -9.95346327 908.42649254 -7.80126953 909.66723633 C-2.75619813 912.57620628 2.28716546 915.48801148 7.32427979 918.41073608 C9.10508126 919.44383565 10.88643983 920.47596796 12.66796875 921.5078125 C14.90085208 922.80146713 17.13269035 924.09692789 19.36328125 925.39453125 C20.37648438 925.98105469 21.3896875 926.56757812 22.43359375 927.171875 C23.31547363 927.68387451 24.19735352 928.19587402 25.10595703 928.72338867 C26.53270752 929.51193237 26.53270752 929.51193237 27.98828125 930.31640625 C28.53619513 930.67533777 29.084109 931.03426929 29.64862633 931.40407753 C35.6642781 935.00506922 39.91816395 934.26150278 46.54492188 932.69213867 C47.58569665 932.46878342 48.62647142 932.24542816 49.69878483 932.01530457 C53.18689271 931.25992798 56.66501474 930.46581344 60.14453125 929.671875 C62.65456738 929.12045391 65.1651585 928.57155397 67.67625427 928.02497864 C73.10068036 926.84052374 78.52049827 925.63666786 83.93771362 924.41967773 C92.55218434 922.48476742 101.17488045 920.5883003 109.79907227 918.69726562 C112.77455545 918.04433314 115.74996226 917.39105345 118.72532654 916.73757935 C119.471095 916.57379764 120.21686347 916.41001593 120.98523098 916.24127114 C126.37306109 915.05738453 131.75961998 913.86781955 137.14564514 912.67575073 C160.07585052 907.60177398 183.0238457 902.61456658 205.984375 897.6796875 C207.21474983 897.41521462 207.21474983 897.41521462 208.46998072 897.14539886 C215.82679974 895.56413653 223.18381591 893.9837933 230.54112053 892.40479183 C241.59480417 890.03247698 252.64738044 887.65506617 263.69921875 885.27416992 C265.20752589 884.94928672 266.7158346 884.62441081 268.22414494 884.29954243 C276.74670078 882.46389678 276.74670078 882.46389678 285.26916313 880.62781715 C292.47222119 879.07598027 299.67617321 877.52839938 306.88105392 875.98504639 C309.8296501 875.35054188 312.7763535 874.70790629 315.72268677 874.06298828 C317.42000075 873.69553243 319.1173359 873.32817441 320.81469727 872.9609375 C321.5476171 872.79796677 322.28053694 872.63499603 323.03566647 872.46708679 C334.38855734 870.02966562 344.67981207 870.16258762 354.7578125 876.4140625 C360.67127298 880.83044438 364.02927994 887.35588389 365.98828125 894.31640625 C367.02055329 903.77489886 365.85184288 911.67267192 360.4453125 919.5703125 C353.86271831 927.74960001 345.35522739 930.01955642 335.46777344 932.24560547 C334.37028149 932.50049177 333.27278954 932.75537807 332.14204025 933.0179882 C328.76041325 933.79795394 325.37542751 934.56079557 321.98828125 935.31640625 C320.99176041 935.53876198 319.99523956 935.76111771 318.96852112 935.99021149 C312.09247614 937.51435062 305.20546069 938.98521889 298.31640625 940.44921875 C296.0928698 940.92425839 293.86939651 941.39959376 291.64598083 941.87519836 C286.94228785 942.88078503 282.23820454 943.88451576 277.53378296 944.88668823 C270.14135447 946.461564 262.74990921 948.04101945 255.35864258 949.62133789 C247.76577446 951.24458444 240.1728718 952.86766713 232.57966614 954.48933411 C209.31788339 959.45735725 186.05943732 964.44082001 162.80383301 969.43768311 C157.72761989 970.52827705 152.6509985 971.61695783 147.5742712 972.70515537 C143.82014747 973.51021113 140.06633179 974.31669551 136.31260872 975.12361717 C134.58172955 975.49541626 132.85072807 975.86664645 131.11959648 976.23726845 C128.77559792 976.73920936 126.4320561 977.24322928 124.08862305 977.74780273 C123.40548664 977.89357317 122.72235023 978.03934361 122.01851273 978.18953133 C119.27819453 978.78153297 116.65130759 979.4287308 113.98828125 980.31640625 C114.61992188 980.66719238 115.2515625 981.01797852 115.90234375 981.37939453 C128.59400187 988.43615761 141.22565038 995.57528466 153.75195312 1002.92236328 C161.46623249 1007.44240969 169.21956233 1011.89095156 176.98828125 1016.31640625 C186.70971109 1021.85593728 196.39723429 1027.45015812 206.05517578 1033.09985352 C213.31039861 1037.34257904 220.58182267 1041.55637235 227.86328125 1045.75390625 C228.9320752 1046.37007812 230.00086914 1046.98625 231.10205078 1047.62109375 C235.56900547 1050.19547556 240.03664546 1052.76866548 244.50488281 1055.34082031 C246.86174416 1056.69755883 249.21835049 1058.05473846 251.57470703 1059.41235352 C253.77834994 1060.68186744 255.9824208 1061.95063893 258.18701172 1063.21850586 C285.43637403 1078.91883055 285.43637403 1078.91883055 289.60546875 1092.296875 C291.33862791 1101.44017383 289.82387734 1110.15964185 284.86328125 1118.00390625 C280.39967609 1123.80254739 273.9611738 1127.41470828 266.98828125 1129.31640625 C263.69140625 1129.65234375 263.69140625 1129.65234375 260.23828125 1129.69140625 C258.54445313 1129.73394531 258.54445313 1129.73394531 256.81640625 1129.77734375 C247.60186617 1128.6678379 239.81672925 1123.70084372 231.98828125 1119.00390625 C229.86109126 1117.74539343 227.73347222 1116.48760558 225.60546875 1115.23046875 C223.96916504 1114.26028809 223.96916504 1114.26028809 222.29980469 1113.27050781 C216.92721572 1110.10018917 211.52038535 1106.98987084 206.11328125 1103.87890625 C203.92834596 1102.61986013 201.74345032 1101.36074522 199.55859375 1100.1015625 C198.47352539 1099.47652832 197.38845703 1098.85149414 196.27050781 1098.20751953 C190.84168183 1095.07960477 185.41508844 1091.94782177 179.98828125 1088.81640625 C177.82162542 1087.56638746 175.65495875 1086.31638747 173.48828125 1085.06640625 C66.23828125 1023.19140625 -41.01171875 961.31640625 -203.51171875 867.56640625 C-204.58437988 866.94757568 -205.65704102 866.32874512 -206.76220703 865.69116211 C-208.92728946 864.44205107 -211.09232857 863.19286496 -213.25732422 861.94360352 C-218.69787581 858.80438316 -224.13919091 855.66650062 -229.58203125 852.53125 C-240.03378074 846.50893296 -250.47471423 840.46971288 -260.88671875 834.37890625 C-270.14970569 828.96129488 -279.45586904 823.62229204 -288.77902222 818.30926514 C-302.59354442 810.43475989 -316.38002817 802.50411316 -330.01171875 794.31640625 C-330.26901636 818.36024824 -330.4628204 842.40388303 -330.58165264 866.44882584 C-330.63830275 877.61413932 -330.71549461 888.77859598 -330.84155273 899.94335938 C-330.9514109 909.67798379 -331.02221026 919.41198754 -331.04669219 929.14721465 C-331.06099735 934.29932635 -331.0944593 939.44966293 -331.17474937 944.60120392 C-331.24982114 949.45760721 -331.27236773 954.31151713 -331.25590324 959.16844559 C-331.25891177 960.94380661 -331.28055935 962.7192572 -331.32297897 964.49411392 C-331.58982413 975.89851899 -331.58982413 975.89851899 -326.21503431 985.60300612 C-323.9276126 987.97177211 -321.48233835 990.1413809 -319.01171875 992.31640625 C-317.44766264 994.00426506 -315.9018015 995.70945268 -314.38671875 997.44140625 C-313.30003906 998.65183594 -313.30003906 998.65183594 -312.19140625 999.88671875 C-311.47210937 1000.68851563 -310.7528125 1001.4903125 -310.01171875 1002.31640625 C-308.51200747 1003.98333272 -307.01200554 1005.64999774 -305.51171875 1007.31640625 C-296.51171875 1017.31640625 -296.51171875 1017.31640625 -287.51171875 1027.31640625 C-286.39410156 1028.55777344 -286.39410156 1028.55777344 -285.25390625 1029.82421875 C-283.77879257 1031.46380504 -282.30480223 1033.1044028 -280.83203125 1034.74609375 C-276.71074107 1039.33671235 -272.56298087 1043.90087732 -268.38671875 1048.44140625 C-264.82918776 1052.31008447 -261.328823 1056.2197475 -257.88671875 1060.19140625 C-255.466218 1062.93464043 -252.98971233 1065.62525193 -250.51171875 1068.31640625 C-247.47283857 1071.61669548 -244.4501583 1074.92589908 -241.51171875 1078.31640625 C-238.14849237 1082.19457638 -234.67836204 1085.97168436 -231.20361328 1089.74951172 C-226.76948247 1094.57225516 -222.38653635 1099.43981745 -218.01171875 1104.31640625 C-216.51200747 1105.98333272 -215.01200554 1107.64999774 -213.51171875 1109.31640625 C-204.51171875 1119.31640625 -204.51171875 1119.31640625 -195.51171875 1129.31640625 C-194.39410156 1130.55777344 -194.39410156 1130.55777344 -193.25390625 1131.82421875 C-191.77879257 1133.46380504 -190.30480223 1135.1044028 -188.83203125 1136.74609375 C-184.71074107 1141.33671235 -180.56298087 1145.90087732 -176.38671875 1150.44140625 C-172.82918776 1154.31008447 -169.328823 1158.2197475 -165.88671875 1162.19140625 C-163.466218 1164.93464043 -160.98971233 1167.62525193 -158.51171875 1170.31640625 C-154.90717557 1174.23101766 -151.35789644 1178.18382868 -147.875 1182.20703125 C-145.98580597 1184.34574147 -144.05558141 1186.4431271 -142.11547852 1188.53564453 C-139.7303083 1191.1136513 -137.36754037 1193.71158221 -135.01171875 1196.31640625 C-134.54733398 1196.8278418 -134.08294922 1197.33927734 -133.60449219 1197.86621094 C-125.08590608 1207.33598899 -120.17862901 1215.06491696 -120.625 1228.1328125 C-121.54019805 1235.66701867 -124.50362088 1242.04779089 -130.01171875 1247.31640625 C-139.62460438 1253.95945729 -147.4218815 1255.28914592 -159.01171875 1254.31640625 C-170.37302867 1251.4800624 -178.81608192 1240.06569556 -186.10546875 1231.5078125 C-188.67740827 1228.55113613 -191.34531156 1225.68779629 -194.01171875 1222.81640625 C-197.79834201 1218.73369049 -201.52940033 1214.61869626 -205.171875 1210.40625 C-207.57842031 1207.67270066 -210.04475071 1204.99526619 -212.51171875 1202.31640625 C-215.55062052 1199.01613749 -218.57327975 1195.70691278 -221.51171875 1192.31640625 C-224.87494513 1188.43823612 -228.34507546 1184.66112814 -231.81982422 1180.88330078 C-236.25395503 1176.06055734 -240.63690115 1171.19299505 -245.01171875 1166.31640625 C-246.51143003 1164.64947978 -248.01143196 1162.98281476 -249.51171875 1161.31640625 C-255.51171875 1154.64973958 -261.51171875 1147.98307292 -267.51171875 1141.31640625 C-268.62933594 1140.07503906 -268.62933594 1140.07503906 -269.76953125 1138.80859375 C-271.24464493 1137.16900746 -272.71863527 1135.5284097 -274.19140625 1133.88671875 C-278.31269643 1129.29610015 -282.46045663 1124.73193518 -286.63671875 1120.19140625 C-290.19424974 1116.32272803 -293.6946145 1112.413065 -297.13671875 1108.44140625 C-299.5572195 1105.69817207 -302.03372517 1103.00756057 -304.51171875 1100.31640625 C-308.10562316 1096.41334878 -311.64556496 1092.47315333 -315.1171875 1088.4609375 C-318.11443307 1085.06817911 -321.1959662 1081.75220423 -324.28125 1078.43945312 C-326.40785464 1076.140666 -328.26944257 1073.92982052 -330.01171875 1071.31640625 C-330.01530128 1072.77139306 -330.01530128 1072.77139306 -330.01895618 1074.25577354 C-330.07779501 1097.8762722 -330.153705 1121.49666922 -330.24743366 1145.11705589 C-330.29236675 1156.53977917 -330.33178721 1167.96247144 -330.3581543 1179.38525391 C-330.38115445 1189.34331465 -330.41457514 1199.30127708 -330.46042031 1209.25925982 C-330.4843252 1214.53014808 -330.50307193 1219.80093913 -330.50933266 1225.07188034 C-330.51539582 1230.0377189 -330.53544032 1235.0033088 -330.56599426 1239.96905518 C-330.57475473 1241.78702694 -330.57850121 1243.60503122 -330.57672691 1245.42302322 C-330.56057679 1269.61633972 -330.56057679 1269.61633972 -339.765625 1279.12890625 C-347.70689401 1286.5884153 -354.44412711 1287.95470489 -365.30859375 1287.73828125 C-370.67503044 1287.12691504 -374.56637008 1285.29435827 -379.01171875 1282.31640625 C-379.93984375 1281.71828125 -380.86796875 1281.12015625 -381.82421875 1280.50390625 C-387.03112778 1275.29699722 -390.63711319 1268.76549543 -391.26126641 1261.35259598 C-391.26104904 1260.3029439 -391.26083167 1259.25329181 -391.26060772 1258.17183208 C-391.26520636 1256.95226814 -391.269805 1255.7327042 -391.27454299 1254.47618377 C-391.26952652 1253.12952284 -391.26432439 1251.78286258 -391.25895691 1250.436203 C-391.26054771 1248.99661235 -391.26301412 1247.55702245 -391.26627761 1246.11743462 C-391.27270116 1242.15454159 -391.26661828 1238.19175067 -391.25851536 1234.22886433 C-391.25191095 1229.93386215 -391.25685012 1225.638871 -391.26032257 1221.3438673 C-391.26534035 1212.85871637 -391.2595795 1204.37360406 -391.25041568 1195.88845792 C-391.23999656 1185.82090193 -391.24069201 1175.75335496 -391.24166689 1165.68579474 C-391.2431179 1146.19699583 -391.23269134 1126.70821687 -391.21701614 1107.21942499 C-391.20344433 1090.32705938 -391.19426087 1073.4346981 -391.18896484 1056.54232788 C-391.15650407 956.2307273 -391.04241114 855.91949937 -390.01171875 596.31640625 C-393.57818588 598.37153933 -397.14435923 600.42718121 -400.71027565 602.48326969 C-401.92026264 603.18085029 -403.13032611 603.87829826 -404.34047127 604.57560444 C-412.72631304 609.40782234 -421.08192445 614.28341762 -429.38671875 619.25390625 C-439.77032776 625.43751523 -450.2296261 631.47510745 -460.73291016 637.45239258 C-471.22837039 643.42665416 -481.66319402 649.50133509 -492.08496094 655.60302734 C-497.01679938 658.49021805 -501.95129292 661.37285294 -506.88671875 664.25390625 C-507.85810791 664.82101318 -508.82949707 665.38812012 -509.83032227 665.97241211 C-518.71870319 671.15602423 -527.6303676 676.29891428 -536.54833984 681.43139648 C-537.58168457 682.02637939 -538.6150293 682.6213623 -539.6796875 683.234375 C-541.04516724 684.01977661 -541.04516724 684.01977661 -542.43823242 684.82104492 C-543.71210815 685.56124878 -543.71210815 685.56124878 -545.01171875 686.31640625 C-546.2661528 686.95505867 -546.2661528 686.95505867 -547.54592896 687.60661316 C-550.47068551 689.63465649 -550.98829804 690.81492734 -552.0378418 694.16845703 C-552.36048508 695.16777252 -552.68312836 696.16708801 -553.01554871 697.19668579 C-553.34815201 698.29064667 -553.68075531 699.38460754 -554.0234375 700.51171875 C-554.38887161 701.66118988 -554.75430573 702.81066101 -555.1308136 703.9949646 C-556.12861724 707.14544415 -557.10987607 710.30021894 -558.08441162 713.45791626 C-559.12147824 716.80369929 -560.17994894 720.14269708 -561.23632812 723.48242188 C-562.9880878 729.02946162 -564.72794375 734.58009786 -566.45849609 740.13378906 C-568.8189204 747.70818007 -571.20165592 755.27538962 -573.59375 762.83984375 C-574.3324465 765.17626689 -575.07113469 767.51269266 -575.80981445 769.84912109 C-576.17289703 770.99741394 -576.53597961 772.14570679 -576.9100647 773.32879639 C-578.02178343 776.84826895 -579.13077175 780.36859136 -580.23901367 783.88916016 C-585.59251037 800.88796266 -591.03368017 817.85736824 -596.51171875 834.81640625 C-602.38891787 853.01151932 -608.21463714 871.22141692 -613.95794678 889.45925903 C-620.17334479 909.19584099 -626.39862765 928.92939155 -632.69430542 948.64053345 C-633.481249 951.10770521 -634.26590465 953.57560806 -635.04812622 956.04428101 C-636.13130955 959.46123659 -637.2227985 962.87543134 -638.31640625 966.2890625 C-638.63229202 967.29158051 -638.9481778 968.29409851 -639.27363586 969.32699585 C-642.72932647 980.04547142 -646.77075671 989.29268661 -657.19921875 994.69140625 C-664.57693414 998.14736254 -672.88696127 998.49710724 -680.69921875 996.19140625 C-689.23010151 992.9009229 -694.73263567 987.31153516 -699.01171875 979.31640625 C-702.9507782 969.46875763 -700.85828846 960.37731821 -697.640625 950.66796875 C-697.28214981 949.54629303 -696.92367462 948.42461731 -696.55433655 947.26895142 C-695.78251318 944.85760397 -695.00455077 942.44821437 -694.2210083 940.04064941 C-693.01701322 936.3327116 -691.83481053 932.61854179 -690.65966797 928.90136719 C-688.33414798 921.54868134 -685.98961441 914.2021846 -683.64126968 906.85676193 C-682.4481714 903.123681 -681.25679467 899.39005063 -680.06518555 895.65649414 C-675.57709172 881.59629778 -671.0828174 867.53807644 -666.58853149 853.4798584 C-664.40697633 846.65589267 -662.22568748 839.83184183 -660.04459381 833.00772858 C-659.56501772 831.50728892 -659.08541878 830.00685657 -658.60579681 828.50643158 C-648.68215626 797.46171246 -638.82983918 766.39464853 -629.01171875 735.31640625 C-632.49501997 737.32406708 -635.97807929 739.33214691 -639.4609375 741.34057617 C-641.2121189 742.35030699 -642.96347873 743.35972832 -644.71484375 744.36914062 C-652.16010312 748.66285555 -659.59193641 752.97882559 -667.01171875 757.31640625 C-675.32980125 762.17647156 -683.66376979 767.00781412 -692.01171875 771.81640625 C-704.37194393 778.93727033 -716.69639202 786.11824003 -729.01171875 793.31640625 C-745.64625368 803.03909977 -762.30335119 812.72102945 -779.01171875 822.31640625 C-779.88022461 822.81672363 -780.74873047 823.31704102 -781.64355469 823.83251953 C-783.88831179 825.12409179 -786.13662503 826.40916033 -788.38671875 827.69140625 C-789.01642578 828.05468018 -789.64613281 828.4179541 -790.29492188 828.79223633 C-797.90804365 833.10185282 -806.29737184 833.69763651 -814.83984375 831.6328125 C-824.19674166 828.17420453 -829.70586426 822.87059176 -833.90234375 813.80078125 C-836.49471048 805.65855898 -836.53762167 796.61250865 -832.94921875 788.75390625 C-828.06885415 779.79835505 -819.72070252 775.04051263 -811.07421875 770.25390625 C-809.32777677 769.26715547 -807.5813454 768.28038492 -805.83575439 767.29212952 C-804.05286302 766.28412473 -802.26748854 765.28062106 -800.48193359 764.27734375 C-795.25250471 761.32231541 -790.06910044 758.29044796 -784.88671875 755.25390625 C-782.90244411 754.09488025 -780.91806912 752.93602603 -778.93359375 751.77734375 C-776.95958756 750.62377981 -774.98562916 749.47013408 -773.01171875 748.31640625 C-759.60553994 740.48064959 -746.18251192 732.67602914 -732.72753906 724.92431641 C-721.46374625 718.43140747 -710.23619111 711.87698069 -699.01171875 705.31640625 C-685.60553994 697.48064959 -672.18251192 689.67602914 -658.72753906 681.92431641 C-647.46374625 675.43140747 -636.23619111 668.87698069 -625.01171875 662.31640625 C-611.60553994 654.48064959 -598.18251192 646.67602914 -584.72753906 638.92431641 C-573.46374625 632.43140747 -562.23619111 625.87698069 -551.01171875 619.31640625 C-537.60553994 611.48064959 -524.18251192 603.67602914 -510.72753906 595.92431641 C-499.46374625 589.43140747 -488.23619111 582.87698069 -477.01171875 576.31640625 C-473.05386401 574.00308587 -469.09561212 571.69044876 -465.13671875 569.37890625 C-463.65594849 568.51422729 -463.65594849 568.51422729 -462.14526367 567.63208008 C-454.84560518 563.37438965 -447.5247066 559.15445646 -440.19921875 554.94140625 C-430.01691437 549.08365923 -419.90217732 543.11834891 -409.80810547 537.1105957 C-401.8577371 532.38704571 -393.86071053 527.75402466 -385.80737305 523.20825195 C-382.12881525 521.12662859 -378.49041126 519.01358113 -374.91796875 516.75390625 C-371.09524881 514.33863584 -367.17135008 512.16164168 -363.19921875 510.00390625 C-355.4137964 505.72745314 -347.76545535 501.24063773 -340.13671875 496.69140625 C-330.75223176 491.09579159 -321.32124279 485.59388333 -311.82421875 480.19140625 C-303.11169993 475.23379086 -294.41693707 470.24864355 -285.76171875 465.19140625 C-284.80289795 464.63163086 -283.84407715 464.07185547 -282.85620117 463.49511719 C-277.64885898 460.45183678 -272.44907779 457.3960405 -267.25390625 454.33203125 C-266.14692383 453.68121582 -265.03994141 453.03040039 -263.89941406 452.35986328 C-261.76377637 451.10411343 -259.63022417 449.84480839 -257.49902344 448.58154297 C-256.54672852 448.02225098 -255.59443359 447.46295898 -254.61328125 446.88671875 C-253.77104004 446.38930176 -252.92879883 445.89188477 -252.06103516 445.37939453 C-250.01171875 444.31640625 -250.01171875 444.31640625 -248.01171875 444.31640625 C-250.50556667 441.5207685 -253.26386956 439.88387221 -256.515625 438.05078125 C-257.63533691 437.4158374 -258.75504883 436.78089355 -259.90869141 436.12670898 C-260.50514465 435.7914621 -261.1015979 435.45621521 -261.71612549 435.11080933 C-264.25013428 433.68648546 -266.77805636 432.25150739 -269.30651855 430.81736755 C-270.61421461 430.0758728 -271.92224236 429.33496274 -273.23059082 428.59461975 C-279.5530144 425.01627771 -285.84746527 421.39020494 -292.13671875 417.75390625 C-294.28515322 416.51301558 -296.43359072 415.27213017 -298.58203125 414.03125 C-299.64196289 413.41878418 -300.70189453 412.80631836 -301.79394531 412.17529297 C-307.1984252 409.0531602 -312.60519287 405.93499421 -318.01171875 402.81640625 C-320.17839625 401.56642503 -322.34506292 400.31642504 -324.51171875 399.06640625 C-325.58421875 398.44765625 -326.65671875 397.82890625 -327.76171875 397.19140625 C-363.51171875 376.56640625 -363.51171875 376.56640625 -366.76513672 374.68725586 C-368.91789884 373.44672224 -371.07315402 372.21050429 -373.23095703 370.97875977 C-378.28679583 368.08582824 -383.30748325 365.15819602 -388.24456787 362.06735229 C-389.98873692 360.97822234 -391.74086647 359.90323205 -393.49609375 358.83203125 C-395.69277642 357.48567736 -397.87384789 356.11337456 -400.03515625 354.7109375 C-401.03546875 354.10507812 -402.03578125 353.49921875 -403.06640625 352.875 C-403.92733887 352.33157959 -404.78827148 351.78815918 -405.67529297 351.22827148 C-411.02689485 349.7656465 -415.66009335 351.16473822 -421.01171875 352.31640625 C-422.48095264 352.61988049 -423.95039798 352.92233216 -425.42001343 353.22395325 C-430.82673909 354.34385231 -436.22366281 355.50815399 -441.62109375 356.671875 C-443.72110169 357.12253787 -445.82116024 357.57296498 -447.92126465 358.0231781 C-453.6631071 359.25485028 -459.40419679 360.48999908 -465.14515686 361.72577667 C-471.25488061 363.04032814 -477.36528501 364.35170879 -483.47558594 365.66357422 C-497.75174792 368.729424 -512.02682037 371.80032709 -526.30164742 374.8723855 C-531.65142329 376.02369961 -537.00123874 377.17482965 -542.35107422 378.3258667 C-571.24080977 384.54163887 -600.13025686 390.75875011 -629.01855469 396.98120117 C-630.5383452 397.30854957 -632.05813585 397.63589733 -633.57792664 397.96324444 C-642.18563904 399.81726715 -642.18563904 399.81726715 -650.79325867 401.6717205 C-651.44975655 401.81316433 -652.10625443 401.95460816 -652.78264618 402.10033816 C-654.72562623 402.51902125 -656.66856134 402.93791293 -658.61149597 403.35680676 C-661.10276993 403.89301108 -663.59439079 404.42760656 -666.08638 404.96047688 C-672.29730705 406.29001988 -678.499843 407.64789483 -684.69372559 409.05487061 C-685.94668804 409.33502707 -687.1996505 409.61518353 -688.49058151 409.90382957 C-690.84421854 410.43065926 -693.19575462 410.9670159 -695.54448318 411.5153141 C-706.4549329 413.93626739 -717.01042585 415.12730474 -727.01171875 409.31640625 C-734.8387754 403.85595571 -739.04878401 397.62683984 -741.01171875 388.31640625 C-742.03166431 378.93625117 -739.79415021 370.37108365 -733.88671875 362.94140625 C-725.66005675 354.66846238 -714.69211995 352.77938162 -703.6940918 350.50219727 C-702.09656455 350.16080954 -700.49931613 349.81811476 -698.90233135 349.47419834 C-695.5852129 348.76192723 -692.26663268 348.05717539 -688.94659042 347.35866165 C-684.26915493 346.37346054 -679.5969281 345.36545945 -674.92617798 344.34909058 C-666.46797985 342.51015221 -658.00618663 340.68826115 -649.54348207 338.87018657 C-645.31483209 337.96146842 -641.08647647 337.05138236 -636.858078 336.14149475 C-629.77348116 334.61719265 -622.68869054 333.09379413 -615.60375977 331.57104492 C-607.5157336 329.83269746 -599.42795976 328.09318019 -591.34033376 326.35297197 C-582.57352192 324.46662777 -573.80655119 322.58102288 -565.03952193 320.69568944 C-562.58013529 320.16676347 -560.12077358 319.6377217 -557.66141701 319.10865593 C-549.32458985 317.31539721 -540.98721115 315.52476124 -532.64864868 313.7395876 C-528.0690526 312.75873971 -523.49060306 311.77270194 -518.91276127 310.78370017 C-515.83600921 310.11979957 -512.75853777 309.45927977 -509.68089426 308.79952538 C-508.22819227 308.48735583 -506.77579428 308.17376775 -505.32372439 307.85867107 C-503.32903104 307.42602538 -501.33314341 306.99889695 -499.33720398 306.57203674 C-498.20806926 306.32867364 -497.07893454 306.08531054 -495.91558361 305.83457279 C-493.01171875 305.31640625 -493.01171875 305.31640625 -489.01171875 305.31640625 C-491.52006995 302.49856588 -494.31094813 300.85916902 -497.5859375 299.015625 C-498.71580078 298.37560547 -499.84566406 297.73558594 -501.00976562 297.07617188 C-501.61038818 296.73884033 -502.21101074 296.40150879 -502.82983398 296.05395508 C-506.02488937 294.25926614 -509.21092012 292.4486565 -512.3984375 290.640625 C-513.04537567 290.27427948 -513.69231384 289.90793396 -514.3588562 289.53048706 C-520.2737511 286.17781671 -526.14714386 282.75628637 -532.01171875 279.31640625 C-540.6462821 274.25940116 -549.31778921 269.27033089 -558.01171875 264.31640625 C-567.73296381 258.77654692 -577.42066743 253.18265693 -587.07861328 247.53295898 C-594.33383921 243.29023165 -601.60553015 239.07691212 -608.88671875 234.87890625 C-609.9540625 234.26273438 -611.02140625 233.6465625 -612.12109375 233.01171875 C-617.19294682 230.08564967 -622.26856292 227.16662601 -627.35678101 224.26911926 C-629.13742718 223.2545925 -630.91680062 222.23786889 -632.69580078 221.22045898 C-634.92342664 219.94732671 -637.15342497 218.6783329 -639.38623047 217.41430664 C-650.02544711 211.32327475 -659.8669457 205.50660174 -663.88671875 193.31640625 C-666.34993803 183.71278344 -664.65468706 175.69645984 -659.82421875 167.12890625 C-655.03173479 159.98995388 -648.87048086 156.69246674 -640.60546875 154.78515625 C-628.20713608 152.54449372 -618.3697778 158.44596261 -608.01171875 164.56640625 C-606.77809784 165.28478919 -605.54387341 166.00213665 -604.30908203 166.71850586 C-601.77495092 168.19049364 -599.24408857 169.66786807 -596.71582031 171.14990234 C-592.18621776 173.8030984 -587.6361689 176.42046491 -583.0859375 179.03808594 C-579.8690558 180.88906945 -576.65483434 182.74459057 -573.44140625 184.6015625 C-566.96661853 188.34292281 -560.48935532 192.07998108 -554.01171875 195.81640625 C-551.84504125 197.06638747 -549.67837458 198.31638746 -547.51171875 199.56640625 C-545.90296875 200.49453125 -545.90296875 200.49453125 -544.26171875 201.44140625 C-489.01171875 233.31640625 -433.76171875 265.19140625 -378.51171875 297.06640625 C-377.43905762 297.68523682 -376.36639648 298.30406738 -375.26123047 298.94165039 C-373.09614804 300.19076143 -370.93110893 301.43994754 -368.76611328 302.68920898 C-363.32556169 305.82842934 -357.88424659 308.96631188 -352.44140625 312.1015625 C-341.98965676 318.12387954 -331.54872327 324.16309962 -321.13671875 330.25390625 C-311.86607944 335.67599324 -302.55235176 341.01964637 -293.22125244 346.3366394 C-284.14393239 351.51019412 -275.10600342 356.74782779 -266.08984375 362.02734375 C-258.42598105 366.50806771 -250.7249304 370.92147377 -243.01171875 375.31640625 C-233.33690656 380.8290446 -223.69889738 386.40065192 -214.08984375 392.02734375 C-206.42597901 396.5080689 -198.7248604 400.92134849 -191.01171875 405.31640625 C-181.29047369 410.85626558 -171.60277007 416.45015557 -161.94482422 422.09985352 C-151.4208725 428.25407367 -140.85791738 434.34010621 -130.29394531 440.42529297 C-124.86511933 443.55320773 -119.43852594 446.68499073 -114.01171875 449.81640625 C-111.84506292 451.06642504 -109.67839625 452.31642503 -107.51171875 453.56640625 C-103.17838542 456.06640625 -98.84505208 458.56640625 -94.51171875 461.06640625 C-93.43736572 461.68620361 -92.3630127 462.30600098 -91.25610352 462.94458008 C-89.10807829 464.18386892 -86.960128 465.42328766 -84.81225586 466.6628418 C-79.72516326 469.59843192 -74.63730028 472.53266297 -69.54678345 475.46231079 C-67.13628127 476.8496872 -64.72620499 478.23780249 -62.31616211 479.62597656 C-60.61027907 480.6081444 -58.90377889 481.5892401 -57.19726562 482.5703125 C-55.65329102 483.45976563 -55.65329102 483.45976563 -54.078125 484.3671875 C-53.17006104 484.88966064 -52.26199707 485.41213379 -51.32641602 485.95043945 C-49.52045674 487.01618591 -47.75650746 488.15321377 -46.01171875 489.31640625 C-45.84819007 465.18603259 -45.72475404 441.05574199 -45.64903355 416.9249258 C-45.61294048 405.72051405 -45.56373363 394.51644661 -45.48364258 383.31225586 C-45.41386757 373.54655336 -45.36871001 363.78110022 -45.35309929 354.01515538 C-45.34397407 348.84410902 -45.32253246 343.673776 -45.27160835 338.5029583 C-45.22405245 333.63464967 -45.20944637 328.76734735 -45.21996498 323.89882851 C-45.21804107 322.11338708 -45.20414085 320.32791161 -45.17728043 318.5426712 C-44.74175215 309.32171496 -44.74175215 309.32171496 -47.50926018 300.79265022 C-49.25079497 299.03832442 -50.98715258 297.72100121 -53.01171875 296.31640625 C-54.12589068 295.11512247 -55.21284014 293.88760219 -56.26171875 292.62890625 C-59.27888533 289.12926483 -62.38049386 285.71381436 -65.51171875 282.31640625 C-68.53112629 279.0379896 -71.53374379 275.75059245 -74.44921875 272.37890625 C-77.56135999 268.78682034 -80.78043961 265.30088633 -84.01171875 261.81640625 C-87.79803563 257.73339603 -91.52938924 253.61870908 -95.171875 249.40625 C-97.57841996 246.67270106 -100.04473319 243.99524968 -102.51171875 241.31640625 C-105.53098371 238.0378552 -108.53374013 234.75059668 -111.44921875 231.37890625 C-114.56135999 227.78682034 -117.78043961 224.30088633 -121.01171875 220.81640625 C-124.79803563 216.73339603 -128.52938924 212.61870908 -132.171875 208.40625 C-134.57842031 205.67270066 -137.04475071 202.99526619 -139.51171875 200.31640625 C-142.55062052 197.01613749 -145.57327975 193.70691278 -148.51171875 190.31640625 C-151.87494513 186.43823612 -155.34507546 182.66112814 -158.81982422 178.88330078 C-163.25395503 174.06055734 -167.63690115 169.19299505 -172.01171875 164.31640625 C-173.51143003 162.64947978 -175.01143196 160.98281476 -176.51171875 159.31640625 C-182.51171875 152.64973958 -188.51171875 145.98307292 -194.51171875 139.31640625 C-195.25679687 138.48882812 -196.001875 137.66125 -196.76953125 136.80859375 C-198.24464493 135.16900746 -199.71863527 133.5284097 -201.19140625 131.88671875 C-205.31269643 127.29610015 -209.46045663 122.73193518 -213.63671875 118.19140625 C-217.19424974 114.32272803 -220.6946145 110.413065 -224.13671875 106.44140625 C-226.55722481 103.69816605 -229.03400147 101.00782039 -231.51171875 98.31640625 C-254.96799554 72.79442287 -254.96799554 72.79442287 -255.01171875 57.31640625 C-254.35978526 48.64285632 -249.93226887 41.77595499 -243.63671875 35.94140625 C-235.57191496 29.65714355 -226.96209564 29.15962375 -217.01171875 30.31640625 C-205.19219668 33.30098406 -197.66226223 43.49389157 -190.01171875 52.31640625 C-185.8985162 57.0358933 -181.7601678 61.71808492 -177.51171875 66.31640625 C-174.49167003 69.59422035 -171.48967738 72.88223893 -168.57421875 76.25390625 C-165.46207751 79.84599216 -162.24299789 83.33192617 -159.01171875 86.81640625 C-155.22540187 90.89941647 -151.49404826 95.01410342 -147.8515625 99.2265625 C-145.44501719 101.96011184 -142.97868679 104.63754631 -140.51171875 107.31640625 C-137.47281698 110.61667501 -134.45015775 113.92589972 -131.51171875 117.31640625 C-128.14849237 121.19457638 -124.67836204 124.97168436 -121.20361328 128.74951172 C-116.76948247 133.57225516 -112.38653635 138.43981745 -108.01171875 143.31640625 C-106.51200747 144.98333272 -105.01200554 146.64999774 -103.51171875 148.31640625 C-97.51171875 154.98307292 -91.51171875 161.64973958 -85.51171875 168.31640625 C-84.76664063 169.14398438 -84.0215625 169.9715625 -83.25390625 170.82421875 C-81.77879257 172.46380504 -80.30480223 174.1044028 -78.83203125 175.74609375 C-74.71073982 180.33671374 -70.56288855 184.90079143 -66.38671875 189.44140625 C-62.8133399 193.32876656 -59.28021815 197.24492744 -55.82373047 201.23681641 C-53.83199117 203.52267404 -51.8203588 205.78991161 -49.8046875 208.0546875 C-49.09207764 208.85559814 -48.37946777 209.65650879 -47.64526367 210.48168945 C-47.10619385 211.087146 -46.56712402 211.69260254 -46.01171875 212.31640625 C-46.00537084 211.42587775 -46.00537084 211.42587775 -45.99889469 210.51735878 C-45.94257312 202.63005772 -45.88549392 194.74276226 -45.828125 186.85546875 C-45.81861061 185.54528967 -45.80909622 184.23511059 -45.79929352 182.88522911 C-45.68396646 167.04149035 -45.56200485 151.19782798 -45.42651367 135.35424805 C-45.42034708 134.63127608 -45.41418048 133.90830411 -45.40782702 133.1634239 C-45.35216188 126.63745355 -45.29635881 120.11148444 -45.23958778 113.58552361 C-45.10653761 98.26447241 -44.98837234 82.94382665 -44.94874573 67.62219238 C-44.93421228 62.15840269 -44.90171475 56.69479522 -44.86066341 51.23114395 C-44.8364959 47.8812698 -44.82580938 44.5327196 -44.83474731 41.18267822 C-44.89860796 15.05123947 -44.89860796 15.05123947 -36.27075195 5.36108398 C-34.61953273 3.73808196 -32.97310446 2.54277992 -31.01171875 1.31640625 C-30.37878906 0.90648437 -29.74585938 0.4965625 -29.09375 0.07421875 C-20.52426051 -4.58835527 -8.59301818 -4.64443732 0 0 Z M-193.30078125 480.6328125 C-194.56897705 481.39646118 -194.56897705 481.39646118 -195.86279297 482.17553711 C-196.77818848 482.73764893 -197.69358398 483.29976074 -198.63671875 483.87890625 C-200.63066518 485.08083041 -202.62549354 486.28129242 -204.62109375 487.48046875 C-205.66716797 488.11114258 -206.71324219 488.74181641 -207.79101562 489.39160156 C-213.11953667 492.57611187 -218.503323 495.66337852 -223.88671875 498.75390625 C-232.31749049 503.60496533 -240.73690166 508.47442589 -249.13671875 513.37890625 C-250.12027344 513.95318359 -251.10382813 514.52746094 -252.1171875 515.11914062 C-255.08231771 516.85107279 -258.04709038 518.58361521 -261.01171875 520.31640625 C-275.42074594 528.7383162 -289.85014966 537.12306588 -304.3125 545.453125 C-305.76081459 546.35592445 -305.76081459 546.35592445 -307.23838806 547.27696228 C-310.00528505 548.89956527 -312.67580027 549.88034797 -315.7408905 550.81082153 C-321.54524837 552.86446239 -326.31123281 555.25611559 -330.01171875 560.31640625 C-333.52291328 571.04725894 -332.5813562 583.13100021 -332.36631393 594.28465819 C-332.2954938 598.8266105 -332.32291964 603.36813746 -332.33618164 607.91047668 C-332.34328183 615.53353613 -332.2747105 623.15301719 -332.15917969 630.77514648 C-332.02658841 639.57508093 -332.00746715 648.36963647 -332.05037785 657.17034358 C-332.08968917 665.65689794 -332.0551547 674.14155516 -331.98495483 682.62786293 C-331.95605145 686.23050615 -331.95163148 689.83193419 -331.96694946 693.43465233 C-331.98119148 697.67966204 -331.93021027 701.91914078 -331.82969284 706.16293526 C-331.80302197 707.71547866 -331.79811526 709.2685792 -331.81709671 710.82123566 C-331.86664766 715.56216809 -331.68158483 719.81304769 -330.01171875 724.31640625 C-326.05210862 728.03937651 -321.9604983 730.0529594 -317.01171875 732.31640625 C-314.8405204 733.54844913 -312.67869832 734.79732482 -310.53125 736.0703125 C-308.2967119 737.34184744 -306.06099573 738.61131391 -303.82421875 739.87890625 C-301.35615122 741.28276652 -298.88906511 742.68834845 -296.421875 744.09375 C-295.49234512 744.62282959 -295.49234512 744.62282959 -294.54403687 745.16259766 C-288.27104469 748.73433812 -282.01395225 752.33345776 -275.76171875 755.94140625 C-274.69139404 756.55902832 -273.62106934 757.17665039 -272.51831055 757.81298828 C-264.39451082 762.50641048 -256.29308072 767.23754148 -248.19482422 771.97485352 C-242.83078178 775.10688124 -237.45423119 778.21569153 -232.05859375 781.29296875 C-231.46896347 781.62932846 -230.87933319 781.96568817 -230.27183533 782.3122406 C-227.29813978 784.00748715 -224.3223772 785.69898923 -221.34399414 787.38598633 C-215.68151175 790.60018677 -210.06469642 793.86894082 -204.5234375 797.2890625 C-203.51619629 797.90579834 -202.50895508 798.52253418 -201.47119141 799.15795898 C-199.58746073 800.31762969 -197.71279513 801.49220184 -195.84912109 802.68383789 C-195.01719238 803.19422607 -194.18526367 803.70461426 -193.328125 804.23046875 C-192.61084229 804.68373535 -191.89355957 805.13700195 -191.15454102 805.60400391 C-188.95156797 806.56323998 -188.95156797 806.56323998 -186.45922852 805.56054688 C-183.064057 803.83468213 -179.71033352 802.05037722 -176.38671875 800.19140625 C-175.61312012 799.76037598 -174.83952148 799.3293457 -174.04248047 798.88525391 C-166.42409917 794.60647754 -158.91992496 790.13859607 -151.41482544 785.66503906 C-142.60301949 780.41417581 -133.74017235 775.2633356 -124.82421875 770.19140625 C-113.16282938 763.55581847 -101.55640794 756.83114067 -89.97802734 750.05175781 C-86.91418808 748.2593488 -83.84808606 746.47086996 -80.78125 744.68359375 C-79.22229004 743.77504639 -79.22229004 743.77504639 -77.63183594 742.84814453 C-75.69375879 741.71878594 -73.75561581 740.58954031 -71.81738281 739.46044922 C-69.95005357 738.37167311 -68.10181697 737.24963832 -66.27172852 736.09936523 C-63.61362094 734.64559757 -61.40508561 733.75103158 -58.56225586 732.83227539 C-53.43578295 730.94014084 -49.1909495 728.90575808 -46.01171875 724.31640625 C-43.04385592 714.61426793 -44.0560349 703.74884595 -44.3806572 693.71531677 C-44.49620787 689.56696219 -44.5137024 685.41827104 -44.53930664 681.26855469 C-44.58656493 675.05143925 -44.66623504 668.83610943 -44.78343868 662.61991692 C-45.02885159 649.57615123 -45.04974068 636.53790716 -45.01171875 623.4921875 C-45.00625157 621.42809555 -45.00080408 619.36400355 -44.99537659 617.2999115 C-44.98717169 614.23978414 -44.97881052 611.17965779 -44.96983433 608.11953259 C-44.94032197 597.45072803 -44.95503827 586.7820874 -44.9765625 576.11328125 C-44.97821915 575.24593668 -44.97987579 574.37859211 -44.98158264 573.48496437 C-44.9906318 568.76210911 -45.0006352 564.03925716 -45.01171875 559.31640625 C-46.18877884 558.64485252 -46.18877884 558.64485252 -47.38961792 557.95973206 C-50.36284481 556.26305797 -53.3357915 554.56589482 -56.30856323 552.86842346 C-57.58364231 552.14047123 -58.85882575 551.41270176 -60.13412476 550.68513489 C-68.49282903 545.91623123 -76.83010213 541.11321287 -85.13671875 536.25390625 C-86.67339706 535.35517036 -86.67339706 535.35517036 -88.24111938 534.4382782 C-89.16057343 533.90048233 -90.08002747 533.36268646 -91.02734375 532.80859375 C-100.56994808 527.23211469 -110.15229668 521.72429134 -119.72949219 516.20751953 C-126.23019838 512.4620219 -132.72796907 508.7114336 -139.22607422 504.96142578 C-144.24825577 502.06345736 -149.27098941 499.16646338 -154.29614258 496.27365112 C-156.06217397 495.25693427 -157.82799306 494.23984967 -159.59375 493.22265625 C-161.7990603 491.95239752 -164.00476091 490.68281607 -166.2109375 489.4140625 C-167.21769531 488.83398438 -168.22445312 488.25390625 -169.26171875 487.65625 C-170.2259375 487.10179199 -171.19015625 486.54733398 -172.18359375 485.97607422 C-175.79127721 483.85892711 -179.33083558 481.63747065 -182.85546875 479.38500977 C-186.98369621 477.3391253 -189.65337587 478.40464189 -193.30078125 480.6328125 Z " fill="#7FC8D4" transform="translate(835.01171875,2.68359375)"/>
</svg>
