<?xml version="1.0" encoding="UTF-8"?>
<svg version="1.1" xmlns="http://www.w3.org/2000/svg" width="834" height="831">
<path d="M0 0 C10.4254471 10.67367203 13.96031328 22.88851561 13.87223816 37.47981262 C13.87465257 38.4144431 13.87706699 39.34907359 13.87955457 40.3120262 C13.88515482 43.42138779 13.87655303 46.53054045 13.86791992 49.63989258 C13.8689945 51.88500015 13.87093578 54.13010746 13.87367249 56.37521362 C13.87852571 62.49181365 13.87083538 68.60834071 13.86071944 74.72493196 C13.85183159 81.25385066 13.8536992 87.78276776 13.8540802 94.31169128 C13.85349637 105.38936506 13.84452084 116.467013 13.83081055 127.54467773 C13.81706657 138.65666202 13.80967077 149.7686223 13.81030273 160.88061523 C13.81367332 236.63260244 13.43662164 312.37342603 12.625 391.6875 C16.36554372 389.55094623 20.10597508 387.41419591 23.84631348 385.27728271 C25.11207224 384.55416881 26.37785888 383.83110368 27.64367676 383.10809326 C53.16092621 371.57546443 53.16092621 371.57546443 70.44580078 352.88964844 C70.89983276 351.44611496 70.89983276 351.44611496 71.36303711 349.97341919 C71.67893799 348.92515961 71.99483887 347.87690002 72.3203125 346.796875 C72.66505615 345.69020477 73.0097998 344.58353455 73.36499023 343.44332886 C74.50446298 339.77806927 75.62689539 336.10780468 76.75 332.4375 C77.54757892 329.85891562 78.34937375 327.28165212 79.15185547 324.70458984 C79.56168927 323.38803513 79.97150974 322.07147626 80.38131714 320.75491333 C80.58595455 320.09757328 80.79059196 319.44023323 81.00143051 318.76297379 C81.62955943 316.74315111 82.25603665 314.72282256 82.8821106 312.70236206 C87.0670996 299.20540512 91.40086207 285.75737224 95.75 272.3125 C100.27979557 258.30636023 104.76928746 244.29132923 109.1015625 230.22265625 C109.82795252 227.87223007 110.55435211 225.52180684 111.28076172 223.17138672 C112.6420232 218.76417449 113.98776905 214.35263081 115.32470703 209.93798828 C124.73316867 179.22457499 124.73316867 179.22457499 138.07421875 171.609375 C149.32267841 165.66089712 161.32853436 163.46737737 173.875 166.75 C185.00522154 170.74356786 193.25562113 177.78705333 198.96875 188.1171875 C209.32922572 210.0961967 196.45615875 235.74552909 189.5625 256.9375 C188.33417709 260.71730825 187.10770863 264.49771034 185.88392639 268.2789917 C185.12739852 270.61612439 184.36847275 272.95248283 183.60667419 275.28790283 C181.41890929 282.04151936 179.42395817 288.81990958 177.625 295.6875 C181.00193443 293.7950906 184.37658245 291.89867305 187.75 290 C188.78229736 289.42000244 189.81459473 288.84000488 190.87817383 288.24243164 C196.17247483 285.25420018 201.43191732 282.22516619 206.62890625 279.0703125 C207.58458496 278.49240967 208.54026367 277.91450684 209.52490234 277.3190918 C211.32699578 276.2239152 213.12335615 275.11922372 214.91259766 274.00317383 C227.33659154 266.46866127 239.64961787 263.53820732 253.99609375 266.34765625 C264.83495499 269.53718102 274.24967253 277.01700403 279.875 286.87890625 C285.64042083 299.06683632 286.0399329 310.97382104 281.625 323.6875 C275.93719966 335.78700255 267.27078478 341.87437011 256.00683594 348.31982422 C253.40445947 349.81413674 250.81486755 351.32910522 248.2265625 352.84765625 C237.78412226 358.96966195 227.30499603 365.02679693 216.8125 371.0625 C207.91608123 376.18045025 199.06847344 381.37397373 190.25 386.625 C180.5145012 392.42112916 170.71610108 398.09077459 160.86529541 403.68722534 C152.22949787 408.59592351 143.65813064 413.60152809 135.125 418.6875 C125.9474219 424.15644535 116.72250217 429.52899347 107.4375 434.8125 C95.7632599 441.45596103 84.14337049 448.18751247 72.55175781 454.97412109 C67.61991931 457.86131184 62.6853982 460.74389926 57.75 463.625 C56.76265869 464.2015332 55.77531738 464.77806641 54.75805664 465.37207031 C47.45859787 469.62974279 40.13783646 473.84955109 32.8125 478.0625 C22.79010297 483.82807249 12.83650581 489.70220761 2.90258789 495.61865234 C-6.54917743 501.23262723 -16.07967204 506.70001965 -25.64990234 512.10913086 C-33.33639732 516.46732888 -40.87927953 521.01093244 -48.375 525.6875 C-37.96249403 531.77684253 -27.54959628 537.8652554 -17.09765625 543.88671875 C-16.50635925 544.22739883 -15.91506226 544.56807892 -15.30584717 544.91908264 C-12.42770633 546.57677334 -9.54856615 548.23269219 -6.66845703 549.88696289 C-5.10587158 550.78596313 -5.10587158 550.78596313 -3.51171875 551.703125 C-2.59092529 552.23196289 -1.67013184 552.76080078 -0.72143555 553.30566406 C1.09562767 554.37574811 2.87041946 555.51777964 4.625 556.6875 C7.11163242 556.6037445 7.11163242 556.6037445 9.88142395 556.00830078 C10.95734613 555.80609924 12.03326832 555.60389771 13.1417942 555.39556885 C14.29125212 555.16190613 15.44071003 554.92824341 16.625 554.6875 C17.76346563 554.45722107 18.90193127 554.22694214 20.07489586 553.98968506 C23.89502814 553.19773347 27.70906587 552.37939124 31.5222168 551.5546875 C32.97729507 551.2421344 34.43242562 550.92982461 35.88760376 550.61773682 C39.80319829 549.77725231 43.71805585 548.93338176 47.63277793 548.0888443 C51.74807533 547.20163732 55.86404361 546.31755335 59.97993469 545.43310547 C66.88553134 543.948745 73.79069852 542.46240135 80.69555664 540.97460938 C90.41272839 538.88084891 100.13064881 536.79058055 109.84873331 534.70106125 C122.89050211 531.89672012 135.93204804 529.09133648 148.97273636 526.28197479 C150.3767072 525.97955262 151.78069877 525.67722664 153.18471336 525.37500763 C162.03057426 523.47112798 162.03057426 523.47112798 170.86653137 521.52197266 C184.37440387 518.52289208 196.22694653 519.99620718 208.125 527.375 C217.21912934 533.64948447 222.68644438 542.12120428 225.625 552.6875 C225.94983751 555.58791115 226.00614616 558.4580336 226 561.375 C225.99758301 562.56657715 225.99758301 562.56657715 225.99511719 563.78222656 C225.80568233 572.9159581 223.22081317 580.39598587 217.625 587.6875 C216.944375 588.656875 216.26375 589.62625 215.5625 590.625 C209.72478973 597.28173231 202.29603555 600.82217601 193.82421875 602.94921875 C193.02427994 603.15476379 192.22434113 603.36030884 191.40016174 603.57208252 C178.12378692 606.90211225 164.6941942 609.62716706 151.30541992 612.46240234 C145.35812512 613.72216458 139.4119778 614.98727412 133.46675301 616.25676727 C131.40319011 616.69628875 129.33889994 617.13226259 127.27452087 617.56793213 C126.0346492 617.83200867 124.79477753 618.09608521 123.51733398 618.36816406 C122.42436508 618.59957092 121.33139618 618.83097778 120.20530701 619.06939697 C117.65810695 619.57655169 117.65810695 619.57655169 115.625 620.6875 C116.20652832 621.01322998 116.78805664 621.33895996 117.38720703 621.67456055 C123.39222846 625.04247171 129.3855015 628.43054916 135.36962891 631.83544922 C137.48246873 633.03748933 139.59665054 634.23717483 141.71240234 635.43408203 C172.58618702 652.95294857 172.58618702 652.95294857 178.5 669.25 C181.64626908 681.34523802 180.24454381 693.2001133 174.3046875 704.11328125 C167.99453025 714.37159699 158.52633104 721.19574394 146.8125 724.0625 C126.77338241 727.28754549 111.26858435 716.41236533 94.88818359 706.62548828 C89.53868445 703.44844772 84.14396151 700.35074475 78.75 697.25 C76.56501329 695.99104312 74.38011785 694.73192784 72.1953125 693.47265625 C71.11024414 692.84762207 70.02517578 692.22258789 68.90722656 691.57861328 C63.47840058 688.45069852 58.05180719 685.31891552 52.625 682.1875 C50.45834417 680.93748121 48.2916775 679.68748122 46.125 678.4375 C-10.20833333 645.9375 -66.54166667 613.4375 -122.875 580.9375 C-123.94766113 580.31866943 -125.02032227 579.69983887 -126.12548828 579.06225586 C-128.29057071 577.81314482 -130.45560982 576.56395871 -132.62060547 575.31469727 C-138.06115706 572.17547691 -143.50247216 569.03759437 -148.9453125 565.90234375 C-159.91417031 559.58239797 -170.87400385 553.24738113 -181.8125 546.875 C-182.83166504 546.28195068 -183.85083008 545.68890137 -184.90087891 545.07788086 C-185.8397998 544.53010986 -186.7787207 543.98233887 -187.74609375 543.41796875 C-188.57036865 542.93739014 -189.39464355 542.45681152 -190.24389648 541.96166992 C-191.98529285 540.92050282 -193.68684188 539.81293875 -195.375 538.6875 C-195.72575126 546.62450001 -195.99059788 554.55816315 -196.15218258 562.50104523 C-196.22982652 566.19150691 -196.33466126 569.87659705 -196.5065918 573.56396484 C-197.93772481 592.60081168 -197.93772481 592.60081168 -190.28382874 609.2376709 C-187.76076822 611.70002229 -185.12872689 613.91839895 -182.33267212 616.06323242 C-178.9265809 618.88924372 -176.2091026 622.30618997 -173.375 625.6875 C-171.56150761 627.70641793 -169.71674719 629.69407951 -167.875 631.6875 C-164.85495128 634.9653141 -161.85295863 638.25333268 -158.9375 641.625 C-155.82535876 645.21708591 -152.60627914 648.70301992 -149.375 652.1875 C-145.58868312 656.27051022 -141.85732951 660.38519717 -138.21484375 664.59765625 C-135.80829844 667.33120559 -133.34196804 670.00864006 -130.875 672.6875 C-127.27484677 676.59729181 -123.73082336 680.54616536 -120.25 684.5625 C-117.35580664 687.84258581 -114.38281108 691.05018057 -111.41967773 694.26782227 C-108.88759884 697.02223428 -106.38464732 699.79492499 -103.9375 702.625 C-100.82533488 706.21711347 -97.60574309 709.70249234 -94.375 713.1875 C-68.32549018 741.35876181 -68.32549018 741.35876181 -69 762.015625 C-70.15543864 773.32929497 -75.0994286 782.73375278 -83.35546875 790.56640625 C-94.29614078 799.27963607 -105.84754715 800.53519873 -119.375 799.6875 C-133.62640651 797.65690744 -143.48314335 786.30702594 -152.40234375 775.9453125 C-154.80701516 773.19303512 -157.27491795 770.5012368 -159.75 767.8125 C-164.66319384 762.47138013 -169.52879501 757.08954212 -174.375 751.6875 C-175.87471128 750.02057353 -177.37471321 748.35390851 -178.875 746.6875 C-179.60976563 745.87023437 -180.34453125 745.05296875 -181.1015625 744.2109375 C-182.6762727 742.46306329 -184.2546501 740.71848862 -185.8359375 738.9765625 C-186.63257813 738.09742188 -187.42921875 737.21828125 -188.25 736.3125 C-188.96929687 735.52101563 -189.68859375 734.72953125 -190.4296875 733.9140625 C-192.18870284 731.90073169 -193.78482228 729.83421176 -195.375 727.6875 C-195.38713028 728.64684196 -195.38713028 728.64684196 -195.39950562 729.62556458 C-195.4860534 736.32633199 -195.58557444 743.0268205 -195.69238281 749.72729492 C-195.73049277 752.2226897 -195.76537585 754.71813606 -195.796875 757.21362305 C-195.84291814 760.81577904 -195.90084596 764.41758543 -195.9609375 768.01953125 C-195.97248871 769.12206741 -195.98403992 770.22460358 -195.99594116 771.36054993 C-196.26115802 785.51281998 -198.63170325 798.02422126 -208.6875 808.625 C-217.40709928 816.71444336 -227.49943026 820.50061693 -239.375 820.6875 C-250.51777949 820.00898163 -261.49577228 815.75432838 -269.375 807.6875 C-277.76717035 796.53938236 -280.70149635 786.28353758 -280.62223816 772.44825745 C-280.62465257 771.46573578 -280.62706699 770.48321412 -280.62955457 769.47091907 C-280.63515828 766.20002605 -280.6265508 762.92933131 -280.61791992 759.65844727 C-280.61899431 757.29859362 -280.6209353 754.93874024 -280.62367249 752.57888794 C-280.62801914 746.82257133 -280.62306308 741.06631742 -280.61382218 735.31000776 C-280.60329889 728.4978024 -280.60351269 721.6856087 -280.60399476 714.87339675 C-280.60449622 702.58510106 -280.59534572 690.29683121 -280.58081055 678.00854492 C-280.56702079 666.34317544 -280.5596727 654.67782894 -280.56030273 643.01245117 C-280.56346308 568.23160413 -280.24442444 493.46416899 -279.375 418.6875 C-283.11378517 420.81854793 -286.85189376 422.95077693 -290.58944702 425.08398438 C-291.85420638 425.80564342 -293.11913284 426.52700971 -294.38424683 427.24804688 C-306.1203512 433.93737529 -317.77185471 440.76241398 -329.38916016 447.65625 C-331.375 448.6875 -331.375 448.6875 -333.375 448.6875 C-333.54982407 449.34728348 -333.72464813 450.00706696 -333.9047699 450.68684387 C-335.76077258 457.60229565 -337.80785815 464.43728976 -339.97265625 471.26171875 C-340.31890549 472.35880157 -340.66515472 473.4558844 -341.02189636 474.58621216 C-342.15806958 478.18322622 -343.29763384 481.77915465 -344.4375 485.375 C-345.0377332 487.27232002 -345.63796545 489.16964034 -346.23809624 491.06699276 C-352.71936223 511.55350278 -359.27423566 532.01622606 -365.87182617 552.46557617 C-369.44121009 563.53282619 -372.99022895 574.60549306 -376.4765625 585.69921875 C-377.12203782 587.74830125 -377.76754485 589.79737376 -378.41308594 591.84643555 C-379.60333264 595.62561295 -380.78507606 599.40730283 -381.96191406 603.19067383 C-382.49251665 604.87721719 -383.02342279 606.56366509 -383.5546875 608.25 C-383.89725082 609.36473946 -383.89725082 609.36473946 -384.24673462 610.5019989 C-388.30569124 623.29826036 -394.81769241 633.42645844 -406.8515625 640.05078125 C-416.48039951 644.47875813 -429.07477953 645.70721508 -439.3125 642.5 C-440.68417984 641.93672463 -442.03949476 641.33186829 -443.375 640.6875 C-444.12007813 640.3471875 -444.86515625 640.006875 -445.6328125 639.65625 C-456.98247099 633.96218405 -463.29336263 624.94604768 -467.2578125 613.03515625 C-471.39942762 595.60367489 -463.01975206 577.09648336 -457.625 560.875 C-456.81635201 558.41125205 -456.00905151 555.9470614 -455.203125 553.48242188 C-453.64974296 548.73551393 -452.08986806 543.99082011 -450.52539062 539.24755859 C-447.73062638 530.75201526 -445.03802452 522.22511446 -442.375 513.6875 C-443.21329346 514.16807861 -444.05158691 514.64865723 -444.9152832 515.14379883 C-447.20653152 516.45628302 -449.49884988 517.76676605 -451.79296875 519.07421875 C-454.20932863 520.45137679 -456.62451156 521.83048985 -459.03759766 523.21337891 C-478.83844736 534.55601184 -478.83844736 534.55601184 -488.5625 539.4375 C-489.20300293 539.76041016 -489.84350586 540.08332031 -490.50341797 540.41601562 C-499.405697 544.79792869 -509.94822188 545.04091296 -519.62109375 543.00390625 C-533.28244106 538.33385703 -540.91034235 530.21712307 -547.17578125 517.5546875 C-551.35444945 507.56399545 -550.4271687 495.28821031 -546.64453125 485.34375 C-544.71987071 481.31676794 -542.3420808 478.00502341 -539.375 474.6875 C-538.6325 473.841875 -537.89 472.99625 -537.125 472.125 C-530.06782672 465.86977823 -521.97684485 461.15930565 -513.75 456.625 C-511.71405084 455.48839831 -509.67892006 454.35032968 -507.64453125 453.2109375 C-506.6076416 452.63053711 -505.57075195 452.05013672 -504.50244141 451.45214844 C-499.45121033 448.60200806 -494.44293557 445.67962061 -489.4375 442.75 C-488.44476074 442.16919678 -487.45202148 441.58839355 -486.42919922 440.98999023 C-484.4162555 439.81162216 -482.40356016 438.63282969 -480.39111328 437.45361328 C-475.38961384 434.5249386 -470.38204524 431.60667954 -465.375 428.6875 C-459.39717921 425.201369 -453.41994001 421.71425772 -447.4453125 418.22265625 C-436.01421493 411.54448872 -424.56211888 404.90428347 -413.09082031 398.29541016 C-401.8270275 391.80250122 -390.59947236 385.24807444 -379.375 378.6875 C-375.41714526 376.37417962 -371.45889337 374.06154251 -367.5 371.75 C-366.51281982 371.17354736 -365.52563965 370.59709473 -364.50854492 370.00317383 C-357.20888651 365.74548345 -349.88799394 361.52553948 -342.5625 357.3125 C-333.66603088 352.19463873 -324.81847847 347.00101473 -316 341.75 C-306.15258565 335.88738985 -296.24237495 330.15136187 -286.28039551 324.4866333 C-277.68176127 319.59602307 -269.13695733 314.62377946 -260.63330078 309.56982422 C-250.15620812 303.35164942 -239.59776709 297.27309623 -229.02783203 291.21435547 C-227.39374609 290.27384622 -225.7635887 289.32642402 -224.14013672 288.36767578 C-219.58231039 285.6875 -219.58231039 285.6875 -217.375 285.6875 C-217.375 285.0275 -217.375 284.3675 -217.375 283.6875 C-218.07810303 283.42501465 -218.78120605 283.1625293 -219.50561523 282.89208984 C-222.58410113 281.59971773 -225.38736829 280.07236202 -228.28515625 278.4140625 C-229.43072998 277.75913818 -230.57630371 277.10421387 -231.7565918 276.42944336 C-232.35756683 276.08364227 -232.95854187 275.73784119 -233.57772827 275.38156128 C-235.4551132 274.30237532 -237.33627227 273.23000886 -239.21801758 272.15844727 C-245.00124844 268.85428051 -250.73298798 265.5058685 -256.3515625 261.92578125 C-257.24093506 261.36487793 -258.13030762 260.80397461 -259.04663086 260.22607422 C-260.67526817 259.18962555 -262.29176024 258.13373302 -263.89282227 257.05517578 C-264.62299561 256.59224121 -265.35316895 256.12930664 -266.10546875 255.65234375 C-267.02428833 255.04314087 -267.02428833 255.04314087 -267.96166992 254.42163086 C-275.52685908 252.12031333 -285.82861047 255.95134996 -293.31396484 257.58325195 C-294.70308235 257.88271109 -296.0922857 258.18177223 -297.48156738 258.48046875 C-301.23512761 259.28864285 -304.98747779 260.10231007 -308.73963499 260.91696954 C-312.69116022 261.77388475 -316.64381032 262.62557971 -320.59634399 263.47782898 C-328.09299117 265.09506562 -335.58866051 266.71678694 -343.08396971 268.34021205 C-352.37420185 270.35220343 -361.66558133 272.35887555 -370.95703125 274.36523438 C-374.23687359 275.07347231 -377.51671127 275.78173185 -380.79653931 276.49003601 C-381.59384134 276.66221639 -382.39114337 276.83439678 -383.21260607 277.01179475 C-389.37918023 278.34368304 -395.54527751 279.67776792 -401.71120822 281.01263148 C-406.53482057 282.05662702 -411.35923281 283.09686022 -416.184021 284.13540649 C-420.56739662 285.07908495 -424.94827008 286.03260903 -429.32623291 287.00106812 C-431.00864932 287.36822471 -432.69108173 287.735308 -434.37353516 288.10229492 C-435.42978623 288.34133403 -435.42978623 288.34133403 -436.50737572 288.58520222 C-447.60740965 290.98272473 -459.24349776 291.35742327 -469.375 285.6875 C-470.06722656 285.32527344 -470.75945312 284.96304687 -471.47265625 284.58984375 C-481.85322597 278.68951992 -487.54777682 270.59843379 -491.12109375 259.3359375 C-494.08021934 247.7851438 -492.44041145 236.63166835 -486.5 226.3125 C-484.14395394 222.63590466 -481.68394136 219.57221811 -478.375 216.6875 C-477.611875 216.006875 -476.84875 215.32625 -476.0625 214.625 C-464.32467502 206.16284711 -448.71047078 204.21219241 -434.83203125 201.26953125 C-433.40566201 200.96410705 -431.97936857 200.65832869 -430.55314636 200.35221863 C-426.8516721 199.55864637 -423.14929138 198.76939331 -419.44665527 197.98126221 C-414.92527284 197.0180834 -410.40490499 196.05015607 -405.88449383 195.08243084 C-402.37454895 194.33103831 -398.86443114 193.58049469 -395.35371399 192.8327179 C-394.10108261 192.56541367 -392.84845123 192.29810944 -391.55786133 192.02270508 C-390.45726883 191.78828201 -389.35667633 191.55385895 -388.22273254 191.31233215 C-385.92775785 190.80878276 -383.64968253 190.27471816 -381.375 189.6875 C-382.37744751 189.1298999 -382.37744751 189.1298999 -383.40014648 188.56103516 C-439.2582857 157.46218266 -439.2582857 157.46218266 -445.0625 138.43359375 C-447.91910663 127.02700476 -446.20366335 115.94892972 -440.58984375 105.58984375 C-433.94512861 95.18477535 -424.47144192 88.91107469 -412.5625 86 C-397.01723724 84.47595463 -385.45627539 89.0856417 -372.1875 97 C-370.96773039 97.71412737 -369.74717206 98.42690905 -368.52587891 99.13842773 C-366.02371642 100.59830852 -363.52565217 102.06483698 -361.03076172 103.53710938 C-356.52460035 106.19312871 -351.99049945 108.80004099 -347.45581055 111.40698242 C-344.23626317 113.25789729 -341.02000903 115.1144114 -337.8046875 116.97265625 C-331.32989978 120.71401656 -324.85263657 124.45107483 -318.375 128.1875 C-316.2083225 129.43748122 -314.04165583 130.68748121 -311.875 131.9375 C-310.8025 132.55625 -309.73 133.175 -308.625 133.8125 C-305.375 135.6875 -302.125 137.5625 -298.875 139.4375 C-297.80233887 140.05633057 -296.72967773 140.67516113 -295.62451172 141.31274414 C-293.45942929 142.56185518 -291.29439018 143.81104129 -289.12939453 145.06030273 C-283.68884294 148.19952309 -278.24752784 151.33740563 -272.8046875 154.47265625 C-262.35293801 160.49497329 -251.91200452 166.53419337 -241.5 172.625 C-232.82237759 177.70025123 -224.10894432 182.71008767 -215.375 187.6875 C-205.65384383 193.2275173 -195.96605342 198.82124809 -186.30810547 204.47094727 C-175.78415375 210.62516742 -165.22119863 216.71119996 -154.65722656 222.79638672 C-149.22840058 225.92430148 -143.80180719 229.05608448 -138.375 232.1875 C-136.20834417 233.43751879 -134.0416775 234.68751878 -131.875 235.9375 C-118.875 243.4375 -118.875 243.4375 -115.61914062 245.31591797 C-113.47204864 246.55460002 -111.32491386 247.7932079 -109.17773438 249.03173828 C-104.07911191 251.9728335 -98.98094704 254.91471413 -93.88427734 257.85919189 C-91.46452335 259.25708601 -89.04452737 260.65456089 -86.62451172 262.05200195 C-84.90698948 263.04402324 -83.18981948 264.03665429 -81.47265625 265.02929688 C-80.44011719 265.62548828 -79.40757812 266.22167969 -78.34375 266.8359375 C-77.43044922 267.36364746 -76.51714844 267.89135742 -75.57617188 268.43505859 C-74.19511309 269.22086511 -72.79621505 269.97689248 -71.375 270.6875 C-71.0242019 262.88138062 -70.75936071 255.0771725 -70.59781742 247.2651062 C-70.52018614 243.63512972 -70.41538149 240.01061788 -70.2434082 236.38378906 C-68.83805188 217.58274981 -68.83805188 217.58274981 -76.46617126 201.17138672 C-78.99058318 198.70422489 -81.62400037 196.47601165 -84.41705322 194.32009888 C-87.81699748 191.48511621 -90.54015719 188.07011537 -93.375 184.6875 C-95.14700614 182.71040381 -96.94972469 180.76414981 -98.75 178.8125 C-103.66419348 173.47230833 -108.52880767 168.08952801 -113.375 162.6875 C-114.87471128 161.02057353 -116.37471321 159.35390851 -117.875 157.6875 C-131.375 142.6875 -131.375 142.6875 -144.875 127.6875 C-145.62007813 126.85992187 -146.36515625 126.03234375 -147.1328125 125.1796875 C-148.60792618 123.54010121 -150.08191652 121.89950345 -151.5546875 120.2578125 C-155.67597768 115.6671939 -159.82373788 111.10302893 -164 106.5625 C-167.55764272 102.69370028 -171.06263106 98.78810111 -174.49609375 94.80859375 C-176.44809199 92.60498659 -178.45835539 90.46134496 -180.47436523 88.31640625 C-191.67144227 76.32901325 -198.30328984 65.30387632 -197.75 48.359375 C-196.59456136 37.04570503 -191.6505714 27.64124722 -183.39453125 19.80859375 C-172.45385922 11.09536393 -160.90245285 9.83980127 -147.375 10.6875 C-133.12961307 12.71723487 -123.2684814 24.06075274 -114.35546875 34.421875 C-111.90894273 37.22066216 -109.39425056 39.95441498 -106.875 42.6875 C-103.8555711 45.96589637 -100.8529744 49.25331444 -97.9375 52.625 C-94.82535276 56.21709283 -91.60614784 59.70288997 -88.375 63.1875 C-82.49909181 69.5283232 -76.76904443 75.92836441 -71.375 82.6875 C-71.36286972 81.72815804 -71.36286972 81.72815804 -71.35049438 80.74943542 C-71.2639466 74.04866801 -71.16442556 67.3481795 -71.05761719 60.64770508 C-71.01950723 58.1523103 -70.98462415 55.65686394 -70.953125 53.16137695 C-70.90708186 49.55922096 -70.84915404 45.95741457 -70.7890625 42.35546875 C-70.77751129 41.25293259 -70.76596008 40.15039642 -70.75405884 39.01445007 C-70.48884198 24.86218002 -68.11829675 12.35077874 -58.0625 1.75 C-41.337654 -13.76615965 -18.00851687 -13.43640637 0 0 Z M-138.31640625 335.4765625 C-139.36352783 336.08169678 -140.41064941 336.68683105 -141.48950195 337.31030273 C-142.62734131 337.97102783 -143.76518066 338.63175293 -144.9375 339.3125 C-146.11345291 339.9936961 -147.28947915 340.67476564 -148.46557617 341.35571289 C-151.50728835 343.11778096 -154.54722226 344.88289407 -157.58666992 346.64886475 C-159.30662989 347.64779167 -161.02732338 348.64545529 -162.74804688 349.64306641 C-165.89581274 351.46818171 -169.04199107 353.29599818 -172.1875 355.125 C-173.12086182 355.66656738 -174.05422363 356.20813477 -175.01586914 356.76611328 C-176.79497077 357.80306816 -178.56431124 358.85703951 -180.32118225 359.93122864 C-183.375 361.6875 -183.375 361.6875 -186.7215271 363.18019104 C-190.62776225 365.0981148 -193.2339706 366.65832123 -196.375 369.6875 C-198.17934835 375.22191519 -197.90166745 380.45838325 -197.64453125 386.21875 C-197.62025213 387.8214977 -197.60176238 389.42434258 -197.58879089 391.02722168 C-197.53939289 395.22533498 -197.41195909 399.41750192 -197.26763916 403.61328125 C-197.13409938 407.90282726 -197.0751652 412.19334496 -197.00976562 416.484375 C-196.87077421 424.88813153 -196.64924514 433.28707418 -196.375 441.6875 C-195.89224106 441.95409927 -195.40948212 442.22069855 -194.91209412 442.49537659 C-185.36152866 447.77385627 -175.84503585 453.09430926 -166.4375 458.625 C-165.43678467 459.20838135 -164.43606934 459.7917627 -163.4050293 460.39282227 C-158.51280527 463.24632848 -153.63900972 466.1247309 -148.796875 469.0625 C-147.9318335 469.58078369 -147.06679199 470.09906738 -146.17553711 470.63305664 C-144.55970271 471.60198648 -142.95064869 472.58234803 -141.34985352 473.57592773 C-140.27368774 474.21703491 -140.27368774 474.21703491 -139.17578125 474.87109375 C-138.55872314 475.24806396 -137.94166504 475.62503418 -137.3059082 476.01342773 C-133.79332984 477.23965467 -131.10820161 476.03533455 -127.86157227 474.49511719 C-126.98041748 473.99657227 -126.0992627 473.49802734 -125.19140625 472.984375 C-124.19206055 472.42250488 -123.19271484 471.86063477 -122.16308594 471.28173828 C-121.09864258 470.67313965 -120.03419922 470.06454102 -118.9375 469.4375 C-117.8330957 468.81214355 -116.72869141 468.18678711 -115.59082031 467.54248047 C-100.79615551 459.15319549 -100.79615551 459.15319549 -86.23994446 450.36022949 C-83.375 448.6875 -83.375 448.6875 -80.08877563 447.20037842 C-73.09683544 443.76335566 -73.09683544 443.76335566 -69.11657715 437.25839233 C-68.58361654 432.95935262 -68.45733869 428.83149716 -68.5078125 424.5078125 C-68.48886092 422.92890334 -68.46665825 421.35003019 -68.44137573 419.77120972 C-68.40427396 416.46977393 -68.41585007 413.17288799 -68.46044922 409.87158203 C-68.50184461 406.49785798 -68.47414815 403.13677049 -68.37841797 399.76416016 C-67.12731909 382.3934785 -67.12731909 382.3934785 -71.93304443 366.27255249 C-75.77863842 362.62340602 -80.16905902 360.91644813 -85.18463135 359.40588379 C-88.4790648 358.32539554 -91.10929604 356.64558695 -94.0546875 354.81640625 C-96.11933955 353.62681912 -98.18444374 352.4380164 -100.25 351.25 C-113.01489322 343.90176684 -113.01489322 343.90176684 -119.23046875 340.28125 C-120.11557129 339.76618896 -121.00067383 339.25112793 -121.91259766 338.72045898 C-123.56043155 337.76078933 -125.20728844 336.79943957 -126.85302734 335.83618164 C-132.63652534 332.39611832 -132.63652534 332.39611832 -138.31640625 335.4765625 Z " fill="#7FC8D4" transform="translate(549.375,10.3125)"/>
</svg>
