<?xml version="1.0" encoding="UTF-8"?>
<svg version="1.1" xmlns="http://www.w3.org/2000/svg" width="1333" height="1327">
<path d="M0 0 C10.31278908 7.4378209 18.52607765 18.43476117 21.0625 31.0625 C21.34405619 34.68270141 21.3275073 38.28928873 21.30859566 41.91895199 C21.31090335 43.00758806 21.31321103 44.09622413 21.31558865 45.21784917 C21.32089775 48.87901283 21.31189681 52.54000188 21.30300903 56.20115662 C21.30388091 58.84707478 21.30554712 61.4929816 21.30818737 64.13889748 C21.31233231 69.8983477 21.30905161 75.65775658 21.30091095 81.417202 C21.28883973 89.98127621 21.28823945 98.54532437 21.28999493 107.10940554 C21.29262276 121.51561193 21.28593977 135.92179997 21.27396011 150.32800102 C21.26212823 164.5930433 21.25442866 178.85807793 21.25225449 193.12312508 C21.25211701 194.00990584 21.25197953 194.8966866 21.25183788 195.81033951 C21.25116122 200.31380553 21.25055845 204.81727157 21.24998413 209.32073761 C21.24578271 241.223189 21.23230634 273.12563041 21.21337891 305.02807617 C21.19501178 336.02189074 21.1808437 367.01570257 21.17236328 398.00952148 C21.17210023 398.96479658 21.17183718 399.92007169 21.17156615 400.90429452 C21.16892913 410.49751311 21.1663775 420.09073172 21.16388843 429.68395035 C21.15881594 449.22664271 21.15317343 468.76933488 21.14718628 488.31202698 C21.1469117 489.21057886 21.14663712 490.10913074 21.14635422 491.03491147 C21.12795124 551.0441118 21.09626064 611.05330658 21.0625 671.0625 C24.81514372 668.87376573 28.56773243 666.68493716 32.3203125 664.49609375 C33.36550049 663.88648804 34.41068848 663.27688232 35.48754883 662.64880371 C42.63928005 658.47719034 49.78897514 654.30210507 56.9375 650.125 C65.23206372 645.28103262 73.54846135 640.47626051 81.875 635.6875 C88.51302777 631.86884961 95.13740982 628.03021017 101.72265625 624.12109375 C102.82963867 623.46471924 103.93662109 622.80834473 105.07714844 622.13208008 C107.31806188 620.7936211 109.55184509 619.44315175 111.77832031 618.08081055 C118.71462102 613.87365339 125.58926784 610.30950286 133.0456543 607.13427734 C134.41817951 606.44775858 135.77583582 605.73136138 137.125 605 C138.16943771 604.43420731 139.21387543 603.86841461 140.28996277 603.28547668 C148.06836464 598.72391276 151.6386082 594.64875618 154.27172852 585.74954224 C154.60734319 584.44641483 154.94253698 583.14317896 155.27734375 581.83984375 C155.67076577 580.46095129 156.06931594 579.08351296 156.47265625 577.70748901 C157.29712632 574.87985972 158.09947224 572.04737964 158.88571167 569.20889282 C160.65131219 562.90128401 162.73020996 556.69586746 164.78125 550.4765625 C165.5680957 548.04910464 166.35331589 545.62111932 167.13696289 543.19262695 C167.53190948 541.97080719 167.92685608 540.74898743 168.33377075 539.49014282 C175.71774054 516.63840412 183.02413404 493.76425157 190.23217773 470.85626221 C196.32149411 451.50811257 202.51072948 432.19372654 208.7484436 412.89294434 C213.21528149 399.06876872 217.65393834 385.23659295 222.015625 371.37890625 C222.32015091 370.41182047 222.32015091 370.41182047 222.63082886 369.4251976 C224.76485366 362.64744514 226.8932188 355.86794955 229.01367188 349.0859375 C232.18946409 338.95286004 235.40913467 328.84143272 238.890625 318.80859375 C239.16767273 318.00486832 239.44472046 317.20114288 239.73016357 316.37306213 C244.6060035 302.53105706 252.40254647 292.29419351 265.81640625 285.7109375 C278.04661777 280.6438752 291.55604062 280.30749654 304.03515625 284.75 C317.14030618 290.43171662 325.5589436 299.46047643 331.1875 312.5546875 C335.1533526 323.92110433 334.09697998 337.09566597 330.61328125 348.421875 C330.34948669 349.31086487 330.08569214 350.19985474 329.81390381 351.11578369 C326.22254803 363.08211885 322.32650153 374.95597952 318.45636749 386.83429718 C316.44480387 393.01457632 314.44592801 399.19898286 312.4453125 405.3828125 C312.10712809 406.42761591 312.10712809 406.42761591 311.76211166 407.49352646 C307.00188617 422.20328921 302.33095779 436.94044 297.6875 451.6875 C297.32041931 452.85300385 296.95333862 454.01850769 296.57513428 455.21932983 C295.12630103 459.81962195 293.67749369 464.41992217 292.22915649 469.02037048 C288.48864061 480.89601537 284.7160702 492.76141721 280.9375 504.625 C280.63273743 505.58198792 280.32797485 506.53897583 280.01397705 507.52496338 C278.36437771 512.70442715 276.71390359 517.88361121 275.0625 523.0625 C289.45578592 514.8675716 303.83124607 506.64673475 318.12573242 498.28027344 C326.43786154 493.41751659 334.78356084 488.61444786 343.13232422 483.81494141 C349.9154664 479.90551535 356.6597801 475.93526637 363.38183594 471.92211914 C372.89604569 466.244874 382.43461072 460.62235315 392.125 455.25 C392.98641602 454.76442627 393.84783203 454.27885254 394.73535156 453.77856445 C406.58098684 447.29881127 419.11846217 444.83584529 432.5 447.8125 C446.09685121 452.58332499 457.07875394 460.03103025 463.9375 473.125 C469.52825804 485.45478624 469.96351236 499.54101954 465.25 512.25390625 C459.03685006 527.55378799 446.80677126 535.16842452 433.0625 543.0625 C431.1275072 544.17821726 429.19261846 545.29411502 427.2578125 546.41015625 C423.98670375 548.29614857 420.71498979 550.18105001 417.44140625 552.06274414 C409.48377787 556.64302015 401.57584591 561.30108679 393.6875 566 C383.30223809 572.1817931 372.84488531 578.22103464 362.34130859 584.19848633 C351.84584836 590.17274791 341.41102473 596.24742884 330.98925781 602.34912109 C326.05741931 605.23631184 321.1228982 608.11889926 316.1875 611 C315.20015869 611.5765332 314.21281738 612.15306641 313.19555664 612.74707031 C305.89609787 617.00474279 298.57533646 621.22455109 291.25 625.4375 C282.35353111 630.55536114 273.5059719 635.74897464 264.6875 641 C254.9520012 646.79612916 245.15360108 652.46577459 235.30279541 658.06222534 C226.66699787 662.97092351 218.09563064 667.97652809 209.5625 673.0625 C200.3849219 678.53144535 191.16000217 683.90399347 181.875 689.1875 C170.2007599 695.83096103 158.58087049 702.56251247 146.98925781 709.34912109 C132.61293686 717.76528897 118.21279945 726.1385615 103.77832031 734.45458984 C92.5145275 740.94749878 81.28697236 747.50192556 70.0625 754.0625 C66.10464526 756.37582038 62.14638106 758.6884364 58.1875 761 C57.20539551 761.57355225 56.22329102 762.14710449 55.21142578 762.73803711 C48.86683001 766.43896527 42.50719048 770.11287984 36.13964844 773.77416992 C15.98694708 785.34741781 15.98694708 785.34741781 -3.8046875 797.5234375 C-7.76071088 800.00635438 -11.84215416 802.22050175 -15.95166016 804.4375 C-21.38917967 807.39679108 -26.75318369 810.48606968 -32.125 813.5625 C-33.03215759 814.08139801 -33.03215759 814.08139801 -33.9576416 814.61077881 C-45.32004551 821.11116708 -56.63539987 827.69048156 -67.93164062 834.30517578 C-71.11315961 836.16519638 -74.29832863 838.01883968 -77.484375 839.87109375 C-78.56428711 840.49935059 -79.64419922 841.12760742 -80.75683594 841.77490234 C-82.81165602 842.97013005 -84.86696078 844.16452508 -86.92285156 845.35791016 C-92.32264196 848.50172595 -97.65852833 851.71956629 -102.9375 855.0625 C-87.39516641 864.15181944 -71.82141147 873.18431577 -56.21972656 882.17138672 C-50.79090058 885.29930148 -45.36430719 888.43108448 -39.9375 891.5625 C-37.77084417 892.81251879 -35.6041775 894.06251878 -33.4375 895.3125 C-20.4375 902.8125 -20.4375 902.8125 -17.18334961 904.69140625 C-15.03226199 905.93141644 -12.87944651 907.16843442 -10.72485352 908.40234375 C-5.65775829 911.30901976 -0.6131703 914.24209009 4.37271118 917.2857666 C6.7175512 918.71466537 9.07253207 920.12635415 11.4284668 921.53686523 C13.07898884 922.53468407 14.71457998 923.55707064 16.34960938 924.58007812 C17.35958984 925.18271484 18.36957031 925.78535156 19.41015625 926.40625 C20.28679932 926.94443359 21.16344238 927.48261719 22.06665039 928.03710938 C28.74714945 930.32364642 36.71717135 927.62445152 43.44750977 926.14599609 C44.35194006 925.95116009 45.25637035 925.75632408 46.18820763 925.55558395 C49.21104315 924.90328345 52.23244687 924.24458048 55.25390625 923.5859375 C57.44811825 923.11115367 59.64242128 922.6367904 61.83680725 922.16281128 C66.59181439 921.13489535 71.34620907 920.10420673 76.10015869 919.07141113 C83.71400403 917.41744861 91.32928475 915.77016539 98.94482422 914.12402344 C101.6001086 913.54997736 104.2553799 912.97587083 106.91064453 912.4017334 C107.91279358 912.18504486 107.91279358 912.18504486 108.93518806 911.96397877 C115.2158129 910.60582352 121.49607611 909.24599976 127.77632523 907.8861084 C156.2751962 901.71513405 184.77782915 895.56160602 213.28266239 889.41823387 C222.02517578 887.53394975 230.76723889 885.64760391 239.50868124 883.75835717 C245.56295644 882.4500128 251.61768951 881.1438018 257.67276198 879.83915222 C261.17457991 879.0845648 264.67620041 878.32909435 268.17726326 877.57101059 C281.57657624 874.67045986 294.98505037 871.82007063 308.43505859 869.16308594 C309.49307993 868.94909275 310.55110126 868.73509956 311.64118385 868.51462173 C326.57006058 865.61890957 340.1809022 867.60423143 353.0625 876.0625 C363.30468021 882.99430092 368.83832132 894.17818007 371.5234375 905.921875 C373.69088215 918.54959598 371.5213256 931.50510754 364.0625 942.0625 C352.33150611 957.05717507 338.77753909 961.53524939 320.64379883 965.34301758 C319.22599023 965.6468409 317.80833075 965.95136081 316.39080811 966.2565155 C312.56652024 967.07776489 308.74024926 967.88939588 304.91354203 968.69928575 C300.86606672 969.55771438 296.82055815 970.42531599 292.77482605 971.29191589 C285.09041325 972.93652239 277.40434866 974.57326589 269.71762341 976.20702618 C260.24462354 978.22079684 250.77362872 980.24393213 241.30273438 982.26757812 C237.93520896 982.98709617 234.56767286 983.70656412 231.20011902 984.4259491 C230.37899634 984.60136331 229.55787365 984.77677752 228.71186846 984.95750731 C223.18282145 986.13837088 217.65317764 987.31640867 212.12324524 988.49311829 C198.13737084 991.47003678 184.15449116 994.46021347 170.1831888 997.50490129 C168.76886717 997.81302538 167.35443414 998.1206386 165.93988383 998.42771113 C163.99732663 998.84969248 162.05531262 999.27417209 160.11332703 999.69877625 C159.01329188 999.93879207 157.91325674 1000.17880789 156.7798872 1000.42609692 C153.99062111 1001.03558655 153.99062111 1001.03558655 151.0625 1002.0625 C152.06494751 1002.6201001 152.06494751 1002.6201001 153.08764648 1003.18896484 C175.6719912 1015.76273144 175.6719912 1015.76273144 186.4765625 1022.17260742 C192.78921477 1025.91474409 199.14153766 1029.58631678 205.5 1033.25 C206.60722412 1033.88800537 207.71444824 1034.52601074 208.85522461 1035.18334961 C211.12587068 1036.49139477 213.39662358 1037.79925448 215.66748047 1039.10693359 C218.97829285 1041.01399581 222.28819261 1042.92262956 225.59765625 1044.83203125 C227.20072632 1045.75689331 227.20072632 1045.75689331 228.83618164 1046.70043945 C230.98279646 1047.93935214 233.12911936 1049.17877077 235.27514648 1050.41870117 C240.29280533 1053.316704 245.31334445 1056.20921387 250.34692383 1059.07946777 C252.11365824 1060.08728023 253.87925502 1061.0970578 255.64453125 1062.10742188 C257.84803709 1063.36782721 260.05361691 1064.62461698 262.26171875 1065.87695312 C277.93089837 1074.85513223 289.00375747 1083.64790235 294.80859375 1101.3359375 C298.15416481 1114.11832626 295.84413265 1126.9815588 289.69140625 1138.515625 C283.91982616 1147.5397742 276.89725003 1153.86595935 267.0625 1158.0625 C266.30839844 1158.40023438 265.55429688 1158.73796875 264.77734375 1159.0859375 C259.34771221 1161.11622854 253.92503152 1161.39123729 248.1875 1161.5 C247.46876709 1161.52239746 246.75003418 1161.54479492 246.00952148 1161.56787109 C234.67043432 1161.51981876 224.89060335 1156.24930326 215.3125 1150.6875 C214.23540771 1150.07318115 213.15831543 1149.4588623 212.04858398 1148.82592773 C208.71228986 1146.91763267 205.386022 1144.99294079 202.0625 1143.0625 C201.05010254 1142.47581543 200.03770508 1141.88913086 198.99462891 1141.28466797 C194.04009361 1138.41017556 189.0936735 1135.52212714 184.15234375 1132.625 C177.84679581 1128.9303669 171.51955564 1125.27397319 165.1875 1121.625 C164.10734619 1121.00246338 163.02719238 1120.37992676 161.91430664 1119.73852539 C159.72453666 1118.47673174 157.53467645 1117.21509466 155.34472656 1115.95361328 C149.91590058 1112.82569852 144.48930719 1109.69391552 139.0625 1106.5625 C136.89584417 1105.31248121 134.7291775 1104.06248122 132.5625 1102.8125 C58.89583333 1060.3125 -14.77083333 1017.8125 -88.4375 975.3125 C-89.51016113 974.69366943 -90.58282227 974.07483887 -91.68798828 973.43725586 C-93.85307071 972.18814482 -96.01810982 970.93895871 -98.18310547 969.68969727 C-103.62365706 966.55047691 -109.06497216 963.41259437 -114.5078125 960.27734375 C-124.95956199 954.25502671 -135.40049548 948.21580663 -145.8125 942.125 C-154.49012241 937.04974877 -163.20355568 932.03991233 -171.9375 927.0625 C-181.65865617 921.5224827 -191.34644658 915.92875191 -201.00439453 910.27905273 C-211.52834625 904.12483258 -222.09130137 898.03880004 -232.65527344 891.95361328 C-238.08409942 888.82569852 -243.51069281 885.69391552 -248.9375 882.5625 C-251.10415583 881.31248121 -253.2708225 880.06248122 -255.4375 878.8125 C-259.77083333 876.3125 -264.10416667 873.8125 -268.4375 871.3125 C-269.51128906 870.6930249 -270.58507812 870.0735498 -271.69140625 869.43530273 C-273.8451172 868.19273981 -275.99876367 866.95006511 -278.15234375 865.70727539 C-283.17434262 862.80935377 -288.19692807 859.91246651 -293.22192383 857.01974487 C-294.98795522 856.00302802 -296.75377431 854.98594342 -298.51953125 853.96875 C-300.72484155 852.69849127 -302.93054216 851.42890982 -305.13671875 850.16015625 C-306.14347656 849.58007812 -307.15023437 849 -308.1875 848.40234375 C-309.05890625 847.90081787 -309.9303125 847.39929199 -310.828125 846.88256836 C-313.60732356 845.25576832 -316.3711991 843.60676347 -319.13183594 841.94874573 C-320.03190369 841.408294 -320.93197144 840.86784227 -321.85931396 840.31101322 C-322.54511536 839.89900386 -323.23091675 839.4869945 -323.9375 839.0625 C-324.26552853 858.23007452 -324.51189562 877.39707438 -324.66287041 896.56688023 C-324.73485652 905.46929185 -324.8328678 914.36995291 -324.99365234 923.27124023 C-325.13383871 931.03592685 -325.22366311 938.79934521 -325.25473893 946.56526226 C-325.27288837 950.67255924 -325.31506654 954.77623049 -325.41772079 958.88235664 C-326.61588007 978.39551161 -326.61588007 978.39551161 -319.01301765 995.52684689 C-316.65221121 997.8535324 -314.20726761 999.91959534 -311.52623367 1001.86649895 C-309.45911907 1003.42262587 -307.86865382 1005.24107741 -306.25 1007.25 C-303.38065317 1010.58425366 -300.41747676 1013.82733875 -297.4375 1017.0625 C-293.83729545 1020.97224355 -290.29332218 1024.92116671 -286.8125 1028.9375 C-283.91830664 1032.21758581 -280.94531108 1035.42518057 -277.98217773 1038.64282227 C-275.45009884 1041.39723428 -272.94714732 1044.16992499 -270.5 1047 C-267.38785876 1050.59208591 -264.16877914 1054.07801992 -260.9375 1057.5625 C-257.15118312 1061.64551022 -253.41982951 1065.76019717 -249.77734375 1069.97265625 C-247.37079844 1072.70620559 -244.90446804 1075.38364006 -242.4375 1078.0625 C-238.83734677 1081.97229181 -235.29332336 1085.92116536 -231.8125 1089.9375 C-228.91830664 1093.21758581 -225.94531108 1096.42518057 -222.98217773 1099.64282227 C-220.45009884 1102.39723428 -217.94714732 1105.16992499 -215.5 1108 C-212.38785876 1111.59208591 -209.16877914 1115.07801992 -205.9375 1118.5625 C-202.15118312 1122.64551022 -198.41982951 1126.76019717 -194.77734375 1130.97265625 C-192.37079844 1133.70620559 -189.90446804 1136.38364006 -187.4375 1139.0625 C-183.83734677 1142.97229181 -180.29332336 1146.92116536 -176.8125 1150.9375 C-173.91830664 1154.21758581 -170.94531108 1157.42518057 -167.98217773 1160.64282227 C-165.45009884 1163.39723428 -162.94714732 1166.16992499 -160.5 1169 C-157.38785876 1172.59208591 -154.16877914 1176.07801992 -150.9375 1179.5625 C-147.1491713 1183.64767967 -143.40872147 1187.75812611 -139.77734375 1191.984375 C-137.8629522 1194.14670261 -135.87887051 1196.23540829 -133.89111328 1198.33007812 C-122.38375909 1210.56026578 -114.52183292 1223.98955735 -114.796875 1241.1796875 C-115.36099749 1252.74419848 -119.78726667 1264.23691939 -127.9375 1272.625 C-129.24844746 1273.79637891 -130.58025687 1274.945091 -131.9375 1276.0625 C-132.45570313 1276.52914063 -132.97390625 1276.99578125 -133.5078125 1277.4765625 C-143.84389614 1285.94280186 -156.96557965 1287.26323164 -169.76953125 1286.30615234 C-184.73611671 1284.62409691 -196.55042733 1274.44886711 -205.95703125 1263.36328125 C-208.38850694 1260.53854914 -210.90990064 1257.80080373 -213.4375 1255.0625 C-216.45717838 1251.78433959 -219.45953207 1248.49667807 -222.375 1245.125 C-225.48714124 1241.53291409 -228.70622086 1238.04698008 -231.9375 1234.5625 C-235.72381688 1230.47948978 -239.45517049 1226.36480283 -243.09765625 1222.15234375 C-245.50420156 1219.41879441 -247.97053196 1216.74135994 -250.4375 1214.0625 C-254.03765323 1210.15270819 -257.58167664 1206.20383464 -261.0625 1202.1875 C-263.95669336 1198.90741419 -266.92968892 1195.69981943 -269.89282227 1192.48217773 C-272.42490116 1189.72776572 -274.92785268 1186.95507501 -277.375 1184.125 C-280.48714124 1180.53291409 -283.70622086 1177.04698008 -286.9375 1173.5625 C-290.72381688 1169.47948978 -294.45517049 1165.36480283 -298.09765625 1161.15234375 C-300.5042033 1158.41879243 -302.97061967 1155.74144258 -305.4375 1153.0625 C-310.75602027 1147.28306532 -315.93505295 1141.39992682 -321.0456543 1135.43676758 C-321.58691452 1134.8052327 -322.12817474 1134.17369781 -322.68583679 1133.52302551 C-323.09888565 1133.04105209 -323.51193451 1132.55907867 -323.9375 1132.0625 C-323.94081015 1132.77811474 -323.94412029 1133.49372948 -323.94753075 1134.23102951 C-324.02893415 1151.68512446 -324.12108263 1169.13913004 -324.22502708 1186.59310532 C-324.27503879 1195.03389444 -324.32148251 1203.4746744 -324.359375 1211.91552734 C-324.39243118 1219.27700035 -324.43233647 1226.63839981 -324.48029006 1233.99979138 C-324.50542035 1237.89356205 -324.52724049 1241.78728478 -324.54084396 1245.6811142 C-324.55378775 1249.3550301 -324.57597118 1253.02878046 -324.60488319 1256.70260429 C-324.61810722 1258.67550823 -324.62185649 1260.64846876 -324.62519836 1262.62141418 C-324.75378144 1276.47654549 -326.36544067 1289.71712736 -334.9375 1301.0625 C-335.35644531 1301.62582031 -335.77539062 1302.18914062 -336.20703125 1302.76953125 C-340.08911802 1307.67828559 -344.54324411 1310.9399861 -349.9375 1314.0625 C-350.60265625 1314.45566406 -351.2678125 1314.84882812 -351.953125 1315.25390625 C-362.40529261 1320.65951202 -375.76347174 1321.23174193 -386.9375 1318.0625 C-399.13994731 1313.92941301 -409.93080988 1305.61998135 -416.3125 1294.3125 C-422.14708286 1280.17440238 -421.35385315 1265.30187312 -421.29826355 1250.30984497 C-421.29957288 1247.68262853 -421.30207554 1245.05543765 -421.30603105 1242.42822635 C-421.31222326 1236.7313198 -421.30737088 1231.03450768 -421.29511642 1225.33761215 C-421.27694568 1216.86667283 -421.27611508 1208.39579254 -421.27874239 1199.92483728 C-421.28267637 1185.67256155 -421.27268926 1171.42032767 -421.25469017 1157.16806412 C-421.23692188 1143.06231606 -421.22538886 1128.95658544 -421.22213173 1114.85082626 C-421.22192551 1113.97284476 -421.22171929 1113.09486326 -421.22150682 1112.19027625 C-421.22049178 1107.73121321 -421.21958765 1103.27215016 -421.2187262 1098.81308709 C-421.21242971 1067.25282095 -421.19223089 1035.69257755 -421.16381836 1004.13232422 C-421.13625275 973.47737753 -421.11500794 942.82243707 -421.10229492 912.16748047 C-421.10170305 910.74939535 -421.10170305 910.74939535 -421.10109923 909.30266204 C-421.09714357 899.80842121 -421.09331615 890.31418033 -421.08958265 880.81993941 C-421.08197459 861.48012814 -421.07351083 842.14031727 -421.06452942 822.80050659 C-421.06411755 821.91134867 -421.06370568 821.02219076 -421.06328133 820.10608866 C-421.03569253 760.7582163 -420.98815848 701.41035661 -420.9375 642.0625 C-424.87745222 644.25966278 -428.81580531 646.45967729 -432.75390625 648.66015625 C-434.40501404 649.580849 -434.40501404 649.580849 -436.08947754 650.5201416 C-443.07255382 654.4242283 -449.99995377 658.40876613 -456.875 662.5 C-457.81523514 663.05944809 -458.75547028 663.61889618 -459.72419739 664.19529724 C-460.573181 664.70061478 -461.42216461 665.20593231 -462.296875 665.7265625 C-468.37299418 669.33412445 -474.49758255 672.85550079 -480.625 676.375 C-487.32986211 680.22888964 -494.02259888 684.10037784 -500.67578125 688.04296875 C-501.79202881 688.70425781 -502.90827637 689.36554687 -504.05834961 690.046875 C-506.3089083 691.38930781 -508.55327233 692.74218136 -510.79125977 694.10546875 C-516.45354494 697.53141687 -522.09475704 700.67241404 -528.1015625 703.45703125 C-529.26880859 704.03259766 -530.43605469 704.60816406 -531.63867188 705.20117188 C-533.81590371 706.26556873 -536.027605 707.26397545 -538.27539062 708.16992188 C-545.6667799 711.90117483 -547.85277585 716.32804273 -550.53497314 723.93363953 C-552.08106012 728.73805158 -553.5116211 733.56874823 -554.89117432 738.4234314 C-556.1887193 742.9362282 -557.61319019 747.40173424 -559.05062866 751.87153625 C-560.10200626 755.14376115 -561.13473462 758.42133681 -562.16210938 761.70117188 C-564.45275596 769.01128556 -566.75116354 776.31893426 -569.0546875 783.625 C-569.25552193 784.26211411 -569.45635635 784.89922821 -569.66327667 785.5556488 C-574.19059224 799.91192796 -578.80928679 814.23846026 -583.4375 828.5625 C-589.69592656 847.93634918 -595.8857467 867.33016878 -602 886.75 C-609.90284791 911.84301749 -617.88751934 936.90883167 -625.98944092 961.93833923 C-627.78283896 967.47977744 -629.56595756 973.02416273 -631.32919312 978.57527161 C-632.41711078 981.99114887 -633.5221441 985.40141763 -634.625 988.8125 C-634.97433594 989.92842529 -635.32367187 991.04435059 -635.68359375 992.1940918 C-640.63320589 1007.31539484 -647.96493403 1017.45791183 -662.0625 1025 C-674.21720391 1030.52486541 -687.31022446 1030.69618871 -699.90234375 1026.3203125 C-713.23974913 1020.79309946 -721.85041031 1011.8317729 -727.97265625 998.87109375 C-732.24203625 987.45298446 -730.96253299 974.12878941 -727.48046875 962.72265625 C-727.21723816 961.83225647 -726.95400757 960.94185669 -726.68280029 960.0244751 C-723.10163269 948.05043218 -719.20286077 936.17319231 -715.33136749 924.29070282 C-713.31980387 918.11042368 -711.32092801 911.92601714 -709.3203125 905.7421875 C-709.09485622 905.04565189 -708.86939995 904.34911629 -708.63711166 903.63147354 C-703.87688617 888.92171079 -699.20595779 874.18456 -694.5625 859.4375 C-694.19541931 858.27199615 -693.82833862 857.10649231 -693.45013428 855.90567017 C-692.00130103 851.30537805 -690.55249369 846.70507783 -689.10415649 842.10462952 C-685.36364061 830.22898463 -681.5910702 818.36358279 -677.8125 806.5 C-677.50773743 805.54301208 -677.20297485 804.58602417 -676.88897705 803.60003662 C-675.23937771 798.42057285 -673.58890359 793.24138879 -671.9375 788.0625 C-672.8241333 788.57039062 -673.7107666 789.07828125 -674.62426758 789.6015625 C-680.20171661 792.79404732 -685.78012679 795.98386136 -691.38671875 799.125 C-702.86604022 805.55806076 -714.22553159 812.16727033 -725.52929688 818.90380859 C-734.83545941 824.44181951 -744.22064346 829.83279296 -753.63598633 835.18261719 C-760.36247541 839.00676202 -767.0567937 842.88025832 -773.72387695 846.80712891 C-808.88548612 867.5021998 -808.88548612 867.5021998 -830.0625 863 C-842.57062713 859.44294916 -851.91364902 852.22670896 -858.6875 841.3125 C-864.94544277 829.96382626 -867.03018542 817.51799904 -864.1875 804.6875 C-858.41615001 787.95058504 -848.35522936 778.10260542 -833 769.5 C-831.96077393 768.90558105 -830.92154785 768.31116211 -829.85083008 767.69873047 C-827.65655735 766.44415713 -825.45981462 765.19389495 -823.26074219 763.94775391 C-817.86673866 760.88777042 -812.49665811 757.78648649 -807.125 754.6875 C-806.04726318 754.0672998 -804.96952637 753.44709961 -803.85913086 752.80810547 C-796.05553825 748.31006076 -788.30149671 743.73312375 -780.5625 739.125 C-770.17711775 732.94340391 -759.71988963 726.90396782 -749.21630859 720.92651367 C-738.72084836 714.95225209 -728.28602473 708.87757116 -717.86425781 702.77587891 C-712.93241931 699.88868816 -707.9978982 697.00610074 -703.0625 694.125 C-701.58148804 693.2602002 -701.58148804 693.2602002 -700.07055664 692.37792969 C-692.77109787 688.12025721 -685.45033646 683.90044891 -678.125 679.6875 C-669.22852939 674.56963788 -660.38103286 669.37592492 -651.5625 664.125 C-641.17711775 657.94340391 -630.71988963 651.90396782 -620.21630859 645.92651367 C-609.72084836 639.95225209 -599.28602473 633.87757116 -588.86425781 627.77587891 C-583.93241931 624.88868816 -578.9978982 622.00610074 -574.0625 619.125 C-573.07515869 618.5484668 -572.08781738 617.97193359 -571.07055664 617.37792969 C-563.77109787 613.12025721 -556.45033646 608.90044891 -549.125 604.6875 C-540.22852939 599.56963788 -531.38103286 594.37592492 -522.5625 589.125 C-512.17711775 582.94340391 -501.71988963 576.90396782 -491.21630859 570.92651367 C-480.72084836 564.95225209 -470.28602473 558.87757116 -459.86425781 552.77587891 C-454.93241917 549.88868808 -449.99783843 547.00620331 -445.0625 544.125 C-444.08676025 543.55499268 -443.11102051 542.98498535 -442.10571289 542.39770508 C-436.75924684 539.27816787 -431.40343885 536.17558511 -426.03515625 533.09375 C-425.45687073 532.76144882 -424.87858521 532.42914764 -424.28277588 532.08677673 C-421.49974248 530.48766592 -418.71535974 528.89102264 -415.92822266 527.29907227 C-410.95831573 524.44609455 -406.05703908 521.53212382 -401.23828125 518.4296875 C-396.57772798 515.4324545 -391.82370553 512.73274213 -386.9375 510.125 C-378.23732952 505.41046168 -369.71903883 500.42450538 -361.22369385 495.35162354 C-352.47682619 490.1310755 -343.67195666 485.02692065 -334.8125 480 C-321.72228986 472.56656492 -308.80662726 464.87226061 -295.9375 457.0625 C-304.60338959 451.65689422 -313.3612217 446.47060016 -322.25 441.4375 C-324.72620445 440.03030165 -327.2011803 438.62095344 -329.67578125 437.2109375 C-330.29180206 436.86005066 -330.90782288 436.50916382 -331.54251099 436.14764404 C-337.36490393 432.82698147 -343.15427362 429.45086939 -348.9375 426.0625 C-357.5723374 421.00595309 -366.24363196 416.01654605 -374.9375 411.0625 C-384.00338976 405.89550152 -393.04931502 400.69613364 -402.0625 395.4375 C-403.01511719 394.88191406 -403.96773438 394.32632812 -404.94921875 393.75390625 C-405.85542969 393.22410156 -406.76164062 392.69429688 -407.6953125 392.1484375 C-408.57219727 391.64280273 -409.44908203 391.13716797 -410.35253906 390.61621094 C-412.09827102 389.56692513 -413.80939954 388.4581569 -415.48339844 387.29785156 C-416.31129883 386.73807617 -417.13919922 386.17830078 -417.9921875 385.6015625 C-418.70616699 385.09061035 -419.42014648 384.5796582 -420.15576172 384.05322266 C-427.31265584 381.50427792 -436.51339612 384.67041471 -443.72119141 386.25439453 C-444.76224124 386.47847425 -445.80329107 386.70255398 -446.87588787 386.933424 C-450.34809797 387.68216285 -453.81854749 388.43875883 -457.2890625 389.1953125 C-459.79694586 389.73771902 -462.30493946 390.27961601 -464.81303406 390.82104492 C-470.22259669 391.98955969 -475.63130103 393.16197825 -481.03945923 394.3369751 C-488.90471988 396.04570574 -496.77147355 397.74747897 -504.63866198 399.44730926 C-516.82577198 402.08056651 -529.01219759 404.71697278 -541.19806325 407.35598207 C-570.06192992 413.60677428 -598.92853041 419.84488825 -627.79800797 426.0697155 C-636.59531632 427.96672998 -645.392013 429.86653409 -654.18790668 431.77009749 C-660.24193694 433.0801061 -666.29655524 434.38737197 -672.35163265 435.69253182 C-675.85242437 436.44722082 -679.35293649 437.20314778 -682.85272789 437.96246338 C-686.66955451 438.79052973 -690.48766923 439.61255141 -694.3059082 440.43408203 C-695.94963378 440.79221324 -695.94963378 440.79221324 -697.62656593 441.15757942 C-714.89833023 444.85727063 -731.91909412 448.02898718 -747.81640625 438.30078125 C-759.09985145 430.48680355 -766.03295561 421.2675686 -769.9375 408.0625 C-772.37834443 392.90564345 -769.41634198 379.79151367 -760.69140625 367.26171875 C-748.25840999 351.6720152 -729.33195203 348.87056714 -710.89086914 344.96557617 C-709.56121448 344.68110758 -708.23163197 344.39630159 -706.90211487 344.1111908 C-703.33555999 343.34730905 -699.76804306 342.58801476 -696.20032811 341.82957244 C-692.41642619 341.02426449 -688.63349071 340.21444116 -684.85044861 339.40510559 C-677.67192709 337.87001673 -670.49262077 336.33863341 -663.31299061 334.80873901 C-652.88562727 332.58663947 -642.45937697 330.35932887 -632.03321743 328.13158894 C-630.46602823 327.79673567 -628.89883902 327.4618825 -627.33164978 327.12702942 C-626.56315923 326.96282055 -625.79466867 326.79861168 -625.00289053 326.62942678 C-620.55094535 325.67828068 -616.09875193 324.72830838 -611.64632767 323.77940756 C-597.49103702 320.76242941 -583.33908322 317.73045204 -569.1976651 314.64901221 C-567.77726337 314.33962615 -566.35674861 314.03075856 -564.93611538 313.72243726 C-562.97787257 313.29717458 -561.02016512 312.86944894 -559.06248474 312.44160461 C-557.94902396 312.19880422 -556.83556318 311.95600382 -555.68836117 311.70584583 C-552.87098759 311.09137325 -552.87098759 311.09137325 -549.9375 310.0625 C-550.58895996 309.68665771 -551.24041992 309.31081543 -551.91162109 308.92358398 C-562.12076823 303.03369141 -572.32991536 297.14379883 -582.5390625 291.25390625 C-583.59706055 290.64353516 -584.65505859 290.03316406 -585.74511719 289.40429688 C-587.88904067 288.16739272 -590.03292026 286.93041246 -592.17675781 285.69335938 C-597.61942559 282.55291883 -603.06285545 279.41381366 -608.5078125 276.27734375 C-620.14375888 269.57285111 -631.76904038 262.85113124 -643.3581543 256.06591797 C-648.00530308 253.34663922 -652.65973612 250.64364323 -657.34375 247.98828125 C-673.40187527 238.87049331 -687.50937376 229.95710645 -693.0546875 211.3046875 C-694.09158262 206.91857486 -694.28369551 202.68151786 -694.25 198.1875 C-694.24436035 197.39666016 -694.2387207 196.60582031 -694.23291016 195.79101562 C-693.96919812 183.08061784 -688.86606669 172.19398866 -679.9375 163.0625 C-666.66656161 152.43173069 -654.54733626 150.02318232 -637.9375 151.0625 C-626.05533096 152.90010937 -614.98564705 160.46854138 -604.8125 166.5 C-602.70347714 167.74018236 -600.59408939 168.97974438 -598.484375 170.21875 C-596.86692383 171.17007813 -596.86692383 171.17007813 -595.21679688 172.140625 C-589.84755267 175.28734108 -584.45541809 178.39408619 -579.0625 181.5 C-577.44384033 182.43283813 -577.44384033 182.43283813 -575.79248047 183.38452148 C-573.60167049 184.64699731 -571.4107524 185.90928556 -569.21972656 187.17138672 C-563.79090058 190.29930148 -558.36430719 193.43108448 -552.9375 196.5625 C-550.77084417 197.81251879 -548.6041775 199.06251878 -546.4375 200.3125 C-507.4375 222.8125 -468.4375 245.3125 -429.4375 267.8125 C-428.36483887 268.43133057 -427.29217773 269.05016113 -426.18701172 269.68774414 C-424.02192929 270.93685518 -421.85689018 272.18604129 -419.69189453 273.43530273 C-414.25134294 276.57452309 -408.81002784 279.71240563 -403.3671875 282.84765625 C-392.91543801 288.86997329 -382.47450452 294.90919337 -372.0625 301 C-363.38487759 306.07525123 -354.67144432 311.08508767 -345.9375 316.0625 C-336.21634383 321.6025173 -326.52855342 327.19624809 -316.87060547 332.84594727 C-306.34665375 339.00016742 -295.78369863 345.08619996 -285.21972656 351.17138672 C-279.79090058 354.29930148 -274.36430719 357.43108448 -268.9375 360.5625 C-266.77084417 361.81251879 -264.6041775 363.06251878 -262.4375 364.3125 C-223.4375 386.8125 -184.4375 409.3125 -145.4375 431.8125 C-144.36483887 432.43133057 -143.29217773 433.05016113 -142.18701172 433.68774414 C-140.02192929 434.93685518 -137.85689018 436.18604129 -135.69189453 437.43530273 C-130.25134294 440.57452309 -124.81002784 443.71240563 -119.3671875 446.84765625 C-118.26890625 447.48058594 -117.170625 448.11351562 -116.0390625 448.765625 C-114.0159209 449.93150321 -111.99252318 451.09693721 -109.96875 452.26171875 C-102.46171005 456.58883293 -94.97640571 460.95279091 -87.49267578 465.32006836 C-86.38009903 465.96920952 -85.26752228 466.61835068 -84.12123108 467.28716278 C-81.39325993 468.87883772 -78.6653513 470.47061969 -75.9375 472.0625 C-75.68000141 452.97328648 -75.48630221 433.8844276 -75.36756611 414.79383469 C-75.31095727 405.928696 -75.23384867 397.06463927 -75.10766602 388.20019531 C-74.99767628 380.46960229 -74.92697844 372.73979309 -74.90252656 365.0084393 C-74.88824222 360.91805752 -74.85492626 356.82991705 -74.77446938 352.74025726 C-74.69918287 348.88174859 -74.67688995 345.02637926 -74.69331551 341.16720581 C-74.69031603 339.75947173 -74.66878933 338.35162077 -74.62623978 336.94452667 C-74.41743871 329.67632778 -74.97743044 324.48071736 -79.78911608 318.95563817 C-82.08427575 316.55434204 -84.49366902 314.31289219 -86.9375 312.0625 C-88.12513643 310.74781045 -89.29811514 309.41922069 -90.4375 308.0625 C-93.37593955 304.67199283 -96.39861982 301.36278923 -99.4375 298.0625 C-102.47638018 294.76221077 -105.49906045 291.45300717 -108.4375 288.0625 C-111.80072638 284.18432987 -115.27085671 280.40722189 -118.74560547 276.62939453 C-123.17973628 271.80665109 -127.5626824 266.9390888 -131.9375 262.0625 C-133.43721128 260.39557353 -134.93721321 258.72890851 -136.4375 257.0625 C-145.4375 247.0625 -154.4375 237.0625 -163.4375 227.0625 C-164.18257812 226.23492187 -164.92765625 225.40734375 -165.6953125 224.5546875 C-167.17042618 222.91510121 -168.64441652 221.27450345 -170.1171875 219.6328125 C-174.23847768 215.0421939 -178.38623788 210.47802893 -182.5625 205.9375 C-186.12003099 202.06882178 -189.62039575 198.15915875 -193.0625 194.1875 C-195.48300075 191.44426582 -197.95950642 188.75365432 -200.4375 186.0625 C-204.03762756 182.15268405 -207.58167605 178.20383532 -211.0625 174.1875 C-213.95669336 170.90741419 -216.92968892 167.69981943 -219.89282227 164.48217773 C-222.42490116 161.72776572 -224.92785268 158.95507501 -227.375 156.125 C-230.48714124 152.53291409 -233.70622086 149.04698008 -236.9375 145.5625 C-240.72381688 141.47948978 -244.45517049 137.36480283 -248.09765625 133.15234375 C-250.50420991 130.41878492 -252.97094008 127.74174433 -255.4375 125.0625 C-264.19782375 115.52223814 -264.19782375 115.52223814 -267.9375 111.0625 C-268.58017822 110.30066406 -268.58017822 110.30066406 -269.23583984 109.5234375 C-280.8761607 95.61696485 -285.45558748 83.39537118 -283.9375 65.0625 C-281.68738538 52.92473886 -275.58488116 42.78040493 -265.9375 35.0625 C-252.94688799 26.80313717 -240.59872582 23.9130246 -225.3984375 26.71484375 C-210.48329274 30.86189474 -200.70557049 40.38737601 -190.8828125 51.83203125 C-188.45026385 54.62115831 -185.94571386 57.34167549 -183.4375 60.0625 C-179.83712421 63.97208453 -176.29331868 67.92117075 -172.8125 71.9375 C-169.91830664 75.21758581 -166.94531108 78.42518057 -163.98217773 81.64282227 C-161.45009884 84.39723428 -158.94714732 87.16992499 -156.5 90 C-153.38785876 93.59208591 -150.16877914 97.07801992 -146.9375 100.5625 C-143.15118312 104.64551022 -139.41982951 108.76019717 -135.77734375 112.97265625 C-133.37079844 115.70620559 -130.90446804 118.38364006 -128.4375 121.0625 C-124.83734677 124.97229181 -121.29332336 128.92116536 -117.8125 132.9375 C-114.91830664 136.21758581 -111.94531108 139.42518057 -108.98217773 142.64282227 C-106.45009884 145.39723428 -103.94714732 148.16992499 -101.5 151 C-98.38785276 154.59209283 -95.16864784 158.07788997 -91.9375 161.5625 C-86.06159181 167.9033232 -80.33154443 174.30336441 -74.9375 181.0625 C-74.93391747 179.9426943 -74.93391747 179.9426943 -74.93026257 178.80026627 C-74.87100286 160.59508035 -74.795383 142.39002875 -74.70178509 124.18498611 C-74.6569112 115.38098603 -74.61747736 106.57702564 -74.59106445 97.77294922 C-74.56801606 90.09502594 -74.53454223 82.41722916 -74.48879844 74.73940635 C-74.46495804 70.67793924 -74.44616935 66.6165967 -74.43988609 62.55506134 C-74.43379334 58.72349677 -74.41364453 54.89225056 -74.38322449 51.06080437 C-74.37451081 49.66294258 -74.37070765 48.26503907 -74.37249184 46.86715126 C-74.38705674 30.17360596 -70.91275849 17.62744097 -59.3828125 5.35546875 C-43.34924239 -9.67920482 -18.39743359 -11.67181442 0 0 Z M-204.03125 514.37890625 C-204.88315918 514.88800537 -205.73506836 515.39710449 -206.61279297 515.92163086 C-207.54494629 516.48374268 -208.47709961 517.04585449 -209.4375 517.625 C-211.44978713 518.82675025 -213.46283952 520.02721981 -215.4765625 521.2265625 C-217.06452637 522.17257324 -217.06452637 522.17257324 -218.68457031 523.13769531 C-224.03466018 526.30341946 -229.42309205 529.40183907 -234.8125 532.5 C-243.24296367 537.35159908 -251.66267912 542.22051743 -260.0625 547.125 C-261.04605469 547.69927734 -262.02960937 548.27355469 -263.04296875 548.86523438 C-266.00809896 550.59716654 -268.97287163 552.32970896 -271.9375 554.0625 C-275.89535475 556.37582038 -279.8536911 558.68831285 -283.8125 561 C-284.78155273 561.56630127 -285.75060547 562.13260254 -286.74902344 562.71606445 C-292.20612431 565.90086872 -297.67458841 569.06476587 -303.15625 572.20703125 C-304.36214718 572.89916077 -305.56803915 573.59129936 -306.77392578 574.28344727 C-309.09317987 575.61440588 -311.41478518 576.94095183 -313.73779297 578.26538086 C-315.30231201 579.16268921 -315.30231201 579.16268921 -316.8984375 580.078125 C-318.28748291 580.87138184 -318.28748291 580.87138184 -319.70458984 581.68066406 C-322.02888887 583.00110315 -322.02888887 583.00110315 -323.9375 585.0625 C-324.26262212 587.63679525 -324.26262212 587.63679525 -324.23857117 590.69146729 C-324.25432693 591.88876968 -324.2700827 593.08607208 -324.28631592 594.31965637 C-324.29359167 595.65353256 -324.30060173 596.98741022 -324.30737305 598.32128906 C-324.32153734 599.72070565 -324.33645299 601.12011481 -324.35206604 602.51951599 C-324.39934918 607.12232276 -324.42499945 611.72514841 -324.44921875 616.328125 C-324.45862542 617.91230063 -324.46811984 619.49647574 -324.47770119 621.08065033 C-324.51620334 627.67058965 -324.54941557 634.26051609 -324.56807232 640.85054398 C-324.59487798 650.29643165 -324.65241443 659.74094913 -324.75383729 669.18634057 C-324.82270304 675.82676452 -324.85703741 682.4668243 -324.86563712 689.10759711 C-324.87164164 693.07440705 -324.89261718 697.03980832 -324.95020103 701.00623322 C-325.00358357 704.73983345 -325.01410713 708.47114115 -324.99205589 712.20503426 C-324.99099898 714.22464269 -325.03455226 716.24412085 -325.07949829 718.26322937 C-325.15258299 724.77289595 -325.15258299 724.77289595 -322.00289345 730.16268158 C-319.70364217 731.72410882 -317.46558382 732.91712222 -314.9375 734.0625 C-313.60749333 734.81274734 -312.282172 735.57145789 -310.96484375 736.34375 C-309.6032063 737.08635536 -308.2398458 737.82580793 -306.875 738.5625 C-299.66248842 742.51427903 -292.53356568 746.59291377 -285.4375 750.75 C-273.73453504 757.60345827 -261.99354611 764.38897166 -250.24169922 771.15820312 C-245.80099131 773.71749984 -241.36236985 776.28038117 -236.92626953 778.84765625 C-234.74306919 780.10571697 -232.55528849 781.35586564 -230.36279297 782.59765625 C-225.15700029 785.55565495 -220.08339164 788.58858132 -215.12890625 791.953125 C-206.44044662 798.23543552 -206.44044662 798.23543552 -196.3359375 799.4765625 C-193.23833635 797.72445875 -190.67597809 795.83978288 -187.94384766 793.58642578 C-184.01232426 790.60022852 -179.57764996 788.41626864 -175.25 786.0625 C-165.5217468 780.6041499 -155.92749158 774.93150854 -146.34570312 769.22119141 C-138.19651595 764.37168578 -129.99194724 759.62742888 -121.75 754.9375 C-112.73134247 749.80269483 -103.72316524 744.65151374 -94.75 739.4375 C-93.78876221 738.88175293 -92.82752441 738.32600586 -91.8371582 737.75341797 C-90.92796631 737.22377441 -90.01877441 736.69413086 -89.08203125 736.1484375 C-88.30190674 735.6951709 -87.52178223 735.2419043 -86.71801758 734.77490234 C-85.80044678 734.20980957 -84.88287598 733.6447168 -83.9375 733.0625 C-83.21005962 732.73545074 -82.48261925 732.40840149 -81.73313522 732.07144165 C-78.98500745 730.64660563 -77.0498834 729.33875128 -74.9375 727.0625 C-73.61477527 722.4657202 -73.79712583 717.90327115 -73.91577148 713.16259766 C-73.91831213 711.74301313 -73.91688125 710.32341678 -73.91178894 708.90383911 C-73.90921134 705.06029909 -73.96203546 701.21929795 -74.02495456 697.37634706 C-74.08130157 693.35661047 -74.08650961 689.33681252 -74.09718323 685.31674194 C-74.12513228 677.70903183 -74.19895207 670.10248876 -74.28932863 662.49529207 C-74.39000302 653.83284699 -74.43942849 645.1703455 -74.48458755 636.50746083 C-74.57860567 618.69181276 -74.73685886 600.87725028 -74.9375 583.0625 C-75.60013761 582.68843175 -76.26277521 582.3143635 -76.94549274 581.92895985 C-79.97403865 580.21903335 -83.0022805 578.50856907 -86.03051758 576.7980957 C-87.07294868 576.20964119 -88.11537979 575.62118668 -89.18939972 575.01490021 C-96.03455674 571.14782933 -102.85072967 567.24004005 -109.625 563.25 C-118.3625718 558.12837608 -127.13774352 553.07616603 -135.9375 548.0625 C-144.71162885 543.06188687 -153.46698821 538.03129046 -162.1875 532.9375 C-163.1460791 532.37788574 -164.1046582 531.81827148 -165.09228516 531.24169922 C-170.29983294 528.19819049 -175.49988875 525.142283 -180.6953125 522.078125 C-181.80229492 521.42730957 -182.90927734 520.77649414 -184.04980469 520.10595703 C-186.18544238 518.85020718 -188.31899458 517.59090214 -190.45019531 516.32763672 C-191.8786377 515.48869873 -191.8786377 515.48869873 -193.3359375 514.6328125 C-194.17817871 514.13539551 -195.02041992 513.63797852 -195.88818359 513.12548828 C-199.41209243 511.29762325 -200.81520514 512.44184379 -204.03125 514.37890625 Z " fill="#7FC8D4" transform="translate(864.9375,6.9375)"/>
</svg>
